<svg version="1.1" xmlns="http://www.w3.org/2000/svg" xmlns:xlink="http://www.w3.org/1999/xlink" x="0px" y="0px" viewBox="0 0 500 140" xml:space="preserve">
    <style type="text/css">
        .st0{fill:#eeefed;}
    </style>
    <g>
        <g>
            <path class="st0" d="M490.5,135.1l-4.4,0.1l-0.8-0.1l-1.7,0.2l-0.5-0.2l-1,0.2l-0.2-0.1l0.9-0.1L480,135l0,0.1l-0.1-0.2h-0.9    l0.5,0.1l-2.3,0.1l0-0.2l-1.9,0l-0.2,0.1l0-0.1l-0.4,0.1l-0.1-0.2l-1.7,0.1l-0.4,0.3l-0.6-0.3l-0.6,0.2l0-0.2l-5.5-0.1l0.1,0.2    l-0.4,0l-0.1-0.1l-2.2,0.2l-0.1-0.1l-0.4,0.2l0.3-0.2l-0.2-0.1l-1,0l0.6,0.3l-1.4-0.3l-0.2,0.1l-0.2-0.1H451l-0.1,0.1l-0.3-0.1    H372l-0.4,0.2l-1.8-0.1l0.7-0.1h-93.4l-0.2,0.2l-1.3-0.1l0.5-0.1l-2.2,0.1l0-0.1l-33.1,0.1l0.1-0.1l-1.5,0.1l0-0.1h-0.9l0,0.1    l-0.3,0.1l-0.2-0.2h-18.8l-0.3,0.2l-0.2-0.1l0-0.1H218l0,0.1l-1.4-0.1l0.1,0.1l-9.9-0.1l-5.9,0.5l-0.7-0.5l-52.5,0.2l0.6-0.2    l-1.3,0.1l0-0.1l0.2-0.1l-18.9-0.2l-14.6,0.3l-2.2-0.1l0.5,0.1l-1.3,0.1l-0.2-0.2H84.2l0.7,0.1l-1.8,0.1l-0.4-0.2H48l-0.3,0.1    l-0.1-0.1h-9.8l-0.2,0.1l-0.2-0.1l-1.4,0.3l0.6-0.3l-1,0l-0.2,0.1l0.3,0.2l-0.4-0.2l-0.1,0.1l0-0.1l-2.1-0.1l-0.1,0.1l-0.4,0    l0.1-0.2h-1.9l-3.5,0.1l0,0.2l-0.6-0.2l-0.6,0.3l-0.4-0.3l-1.7-0.1l-0.1,0.2l-0.4-0.1l0,0.1l-0.2-0.1l-1.9,0l0,0.2l-2.3-0.1    l0.5-0.1h-0.9l-0.1,0.2l0-0.1l-3-0.1l1.1,0.1l-0.2,0.1l-1-0.2l-0.5,0.2l-1.2-0.3l-1.3,0.2l-4.4-0.1l-7.2,0.3l7.5,0.4l6.7,0    l0.2-0.2l17.5,0.2l1.5-0.1l0.1,0.3l7.4,0.1l-0.3-0.2l11.2,0l0,0.2l1.3,0l0.1-0.3l2.9,0.1l-0.1-0.2l0.5,0l-0.4-0.1l16.3,0.5    l0.9-0.3l1,0.2l0.5-0.4l3.3,0.2l0,0.3l3.1,0l0.1-0.1l-0.3-0.1l6.6,0.2l0-0.1l4.1,0.1l0,0l8.1-0.1l-0.2-0.1l37.1,0.4l7.6-0.2    l-0.6-0.1l1.8,0.1l-0.6-0.3l0.5,0.1l29.4,0.2l0.5-0.2l1.7,0l-0.5,0.2h59.8l0.7-0.8l0.4,0.8h4.3l0-0.1l22.6,0.1l0.2-1l2.3,0.3    l0.8,0.5l18.7,0l-0.2,0.1l39.8,0.1l0,0l2.2-0.1l-0.1,0.1l3.6,0.6l8.2,0.2l32.2-1l-0.3,0.1l0.1,0.1l22.8,0l0-0.3l27.5-0.2l0.5,0.4    l1-0.2l17.2-0.2l-0.4,0.1l0.5,0l-0.1,0.2l2.9-0.1l0.1,0.3l1.2,0.2h3.3l6.5-0.1l2.2,0.1l0.6-0.3l0.1,0.1l5.7-0.1l0.1-0.3l1.6,0.1    l17.4-0.2l0.2,0.2l6.7,0l7.5-0.4L490.5,135.1z M36.5,135.2l0.6,0L36.5,135.2L36.5,135.2z M461.5,135.2l0.6,0L461.5,135.2    L461.5,135.2z"/>
            <path class="st0" d="M185.8,64l0.6-0.1h-1.6l-0.9,0.2l-0.3-0.2h-20.2l0.4,0.2l-1-0.2l-0.4,0.3l-2-0.2l-2.3-0.1l-0.4,0.3l0-0.3    h-0.9l-0.1,0.2l-0.5-0.2l-1.1,0.2l0.6,0.4l-2.2-0.6l-0.2,0.1l-0.7-0.1l-0.2,0.2l-0.1,0l0.2-0.2l-4.1,0.1l0.3,0.1l-1.3,0.4l0.8-0.5    h-1.6l0,0.2l-0.5-0.2h-0.5l-0.3,0.3L145,64l-0.9,0l0.8-0.1h-1.6l-0.2,0.2l-0.2-0.2l-11.6,0.2l0.6-0.2l-1.4,0.1l0.1-0.1H113    l0.5,0.1l-1.3,0.1l-0.2-0.2H85.4l0.7,0.1l-1.8,0.1L84,63.9H48.7L48.4,64l-0.1-0.1h-9.9l-1.8,0.3l0.7-0.3l-1,0l0.1,0.3L36,64    l-2.3-0.1L33.2,64l0.1-0.2L27.8,64l0,0.2l-0.6-0.2l-0.6,0.3L26.2,64l-1.7-0.1l-0.1,0.2l-0.6-0.2l-1.9,0l0,0.2L19.5,64l0.5-0.1H19    l-0.2,0.3L18.6,64l-3.1-0.1l1.4,0.1l-0.2,0.1L15.7,64l-0.5,0.2L12.9,64l-4.7,0l-7.3,0.3l7.6,0.4l6.8,0l0.2-0.2l17.8,0.2l1.5-0.1    l0.1,0.3l7.5,0.1l-0.3-0.2l11.4,0l0,0.2l1.4,0l0.1-0.3l2.9,0.1l-0.1-0.2l9.2,0.7l2.6-0.1l6.5,0.6l0.5-0.4l3.7-0.6l0,0.3l3.3-0.1    l-0.3-0.1l6.7,0.2l2-0.1l2.2,0.1l0,0l8.2-0.1l-0.2-0.1l25.7,0l-0.2,0.2h1.2l-0.6-0.1l1.9,0.1l-0.6-0.3l2.1,0.3l0.5-0.2l2.5,0.3    h2.9l7.1,0.3l9.5-0.6l-0.1,0.2l1.4-0.3l0.8,0.3l28-0.3l0.1,0.3h13.5l-0.3-0.8l0.8,0.8l11.8,0.4l1.7-1.6L185.8,64z M146.7,64.3    L146.7,64.3l0.3-0.2L146.7,64.3L146.7,64.3z M156.3,64.4l0.6,0L156.3,64.4L156.3,64.4z M196.4,64.8l-0.2-0.1l0.7-0.1L196.4,64.8    L196.4,64.8z M208.8,64.8l0.2,0.2L209,65L208.8,64.8L208.8,64.8z"/>
            <path class="st0" d="M287.3,63.9l1.7,1.6l11.8-0.4l0.8-0.8l-0.3,0.8h13.5l0.1-0.3l28,0.3l0.8-0.3l1.4,0.3l-0.1-0.2l9.5,0.6    l7.1-0.3h2.9l2.5-0.3l0.5,0.2l2.1-0.3l-0.6,0.3l1.9-0.1l-0.6,0.1h1.2l-0.2-0.2l25.7,0l-0.2,0.1l8.2,0.1l0,0l2.2-0.1l2,0.1l6.7-0.2    l-0.3,0.1l3.3,0.1l0-0.3l3.7,0.6l0.5,0.4l6.5-0.6l2.6,0.1l9.2-0.7l-0.1,0.2l2.9-0.1l0.1,0.3l1.4,0l0-0.2l11.4,0l-0.3,0.2l7.5-0.1    l0.1-0.3l1.5,0.1l17.8-0.2l0.2,0.2l6.8,0l7.6-0.4l-7.3-0.3l-4.7,0l-2.3,0.2l-0.5-0.2l-1.1,0.2L482,64l1.4-0.1l-3.1,0.1l-0.3,0.2    l-0.2-0.3h-0.9l0.5,0.1l-2.4,0.1l0-0.2l-1.9,0l-0.6,0.2l-0.1-0.2l-1.7,0.1l-0.4,0.3l-0.6-0.3l-0.6,0.2l0-0.2l-5.5-0.1l0.1,0.2    l-0.5-0.2l-2.3,0.1l-0.4,0.2l0.1-0.3l-1,0l0.7,0.3l-1.8-0.3h-9.9l-0.1,0.1l-0.3-0.1h-35.3l-0.4,0.2l-1.8-0.1l0.7-0.1h-26.6    l-0.2,0.2l-1.3-0.1l0.5-0.1h-17.6l0.1,0.1l-1.4-0.1l0.6,0.2L356,63.9l-0.2,0.2l-0.2-0.2H354l0.8,0.1l-0.9,0l-0.1,0.2l-0.3-0.3    h-0.5l-0.5,0.2l0-0.2h-1.6l0.8,0.5l-1.3-0.4l0.3-0.1l-4.1-0.1l0.2,0.2l-0.1,0l-0.2-0.2l-0.7,0.1l-0.2-0.1l-2.2,0.6l0.6-0.4    l-1.1-0.2l-0.5,0.2l-0.1-0.2h-0.9l0,0.3l-0.5-0.3l-2.3,0.1l-2,0.2l-0.4-0.3l-1,0.2l0.4-0.2h-20.2l-0.3,0.2l-0.9-0.2h-1.6l0.6,0.1    L287.3,63.9z M352.2,64.3l-0.3-0.2L352.2,64.3L352.2,64.3L352.2,64.3z M342.5,64.4l-0.6,0L342.5,64.4L342.5,64.4z M302.5,64.8    l-0.4-0.1l0.7,0.1L302.5,64.8L302.5,64.8z M290,64.8l-0.1,0.2l-0.1-0.1L290,64.8L290,64.8z"/>
        </g>
        <g>
            <path class="st0" d="M71,81.8c0-0.7-0.2-1.8-0.2-1.8c0,0-0.1-0.1-0.1-0.1c0,0,0,0.2,0,0.2c0,0.1,0,0.2-0.1,0.2    c0,0,0.1-0.3,0.1-0.3c-0.2-0.2-0.4,0.4-0.5,0.3c0-0.1-0.1-0.3-0.1-0.4l-0.3,0.3c0.1-0.1,0.1-0.2,0.1-0.3c-0.1,0-0.2,0-0.4,0    c0,0,0,0,0.1,0.1c-0.1,0-0.2,0.1-0.3,0c0,0,0,0,0,0c-0.1,0-0.2,0-0.4,0c-0.1,0-0.3-0.1-0.4-0.1c-0.1,0-0.1,0-0.2,0    c0,0.1,0.1,0.2-0.1,0.2c0-0.1-0.1-0.2-0.2-0.3c0,0,0,0-0.1,0c0,0.1,0.1,0.3,0.1,0.2C68,80,68,79.8,67.9,79.7c-0.1,0-0.2,0-0.3,0    c0,0.1,0,0.2,0.1,0.2c-0.1,0.1-0.2-0.2-0.3-0.2c0,0-4.3-0.1-4.9,0c-0.1,0-0.1,0.1-0.2,0.1c0,0-1.7,0-1.7,0c-0.6-0.1-1.3-0.1-1.9,0    l-3.7,0c0-0.1-0.1-0.1-0.2-0.1c-0.6,0-1.2-0.1-1.8-0.1c-0.7,0-1.4,0.2-2.1,0c-0.1,0-0.2,0-0.3,0.1c-0.1,0-0.3,0-0.3,0    s-0.2,2-0.1,2.5c0,0.5,0,1,0.2,1.3c0,0,0,0,0.1,0c0,0.1,0.1,0.2,0.3,0.2c0.3,0,0.6,0,0.8-0.1l0.6,0l1.6,0.2c0.4,0,0.9,0.1,1.2,0.2    c0.3,0.1,0.9,0.3,0.9,0.3c0.3,0.2,0.7,0.4,0.9,0.7c0.4,0.4,0.8,1.7,0.8,1.7c0,0,0.1,0.4,0.1,0.9c-0.1,0.2-0.1,0.4-0.2,0.6    c0,0.2,0.1,0.3,0.1,0.5c0,0.1,0.1,0.2,0.2,0.2c0,0.1,0,0.1,0,0.2c0,1,0,1.6-0.2,2.5l0.2,1.8c-0.1,0.9-0.1,1.5-0.1,2.2    c0,0.9,0,1.8-0.2,3.5l-0.4,3.7c0.1,1,0,1.7,0,2.5c0,0.5-0.1,1.8-0.1,1.9c-0.1,0.1-0.1,0.2-0.2,0.2c0,0-0.4,0.1-0.4,0.1    c0,0-0.9-0.8-0.9-0.8l-0.8-1.1c0-0.1,0-0.2-0.1-0.3c-0.3-0.2-0.3-0.6-0.5-0.9c-0.1-0.2-0.3-0.3-0.4-0.5c-0.1-0.1-0.2-0.2-0.3-0.3    c-0.1-0.1-0.2-0.2-0.3-0.4c-0.1-0.2-0.2-0.2-0.3-0.1c-0.1-0.1-0.1-0.1-0.2-0.1c-0.3-0.3-0.6-0.6-0.8-0.9c-0.1-0.1-0.2-0.1-0.3-0.1    c-1-1.4-2-2.4-3.1-3.5c-1.1-1.1-2.3-2.3-3.6-4l-0.9-0.7c-0.9-1.6-3.7-4.4-5-5.7l-0.6-0.8L37.7,87c-0.7-1.1-1.7-2.1-2.6-3    c-0.5-0.5-1.1-1.1-1.6-1.6c0-0.1,0.1-0.1,0-0.2c-0.2-0.5-0.8-0.7-1-1.2c0-0.1-0.1-0.1-0.2-0.2c-0.1-0.1-0.2-0.4-0.2-0.4l-1.9-0.5    c-0.9,0.2-2,0.1-3.2,0.1c0,0.2,0.1,0.4,0,0.3c0-0.1,0-0.2,0-0.3c-0.1,0-0.1,0-0.2,0c0,0.1,0,0.2-0.1,0.2l0-0.2c-0.1,0-0.3,0-0.4,0    c0,0.2,0.2,0.6,0.2,0.7c-0.1-0.3-0.3-0.1-0.3-0.6l0.1-0.1c0,0-1.4-0.1-1.4-0.1c-0.1,0.6-0.5,0-0.5,0.8c-0.1-0.3,0-0.2,0.2-0.6    l-0.1-0.2c-0.1,0-0.1,0-0.2,0c0,0.1-0.1,0.2-0.1,0.2c0,0,0-0.1,0-0.2c-0.1,0-0.1,0-0.2,0c0,0.2,0.1,0.4,0,0.4l-0.1-0.4    c-0.2,0.3-0.3,0.1-0.5,0c0,0-0.1,0.4-0.2,0.4c0,0,0.1-0.3,0.1-0.3c-0.2-0.2-0.4,0.4-0.5,0.3c0-0.1,0-0.2-0.1-0.3l-0.3,0.2    c0,0,0.1-0.1,0.1-0.2l-1.5,0c0,0.1,0,0.1-0.1,0.1c0,0,0-0.1-0.1-0.1c0,0-0.1,0.1,0,0.1c-0.1,0-0.2,0-0.2-0.1l-1,0c0,0,0,0,0,0    l-0.2,0l-0.3,0.4c0,0,0.2,0,0.2,0c0,0.6-0.2,1.4,0,2l0.2,1.4c0,0,0.4,0.1,0.5,0.1c0.1,0,0.2,0,0.3-0.1c0.2,0,1.9,0.1,1.9,0.1    c0.3,0.2,1,0.4,1.1,0.4c1.6,1.2,2.4,2,2.7,2.5c-0.1,0.5,0.2,1.1,0.3,1.6c0,0.7,0,1.4,0.1,2.3l-0.1,2.9c0,0.1,0.1,0.2,0.2,0.2    c-0.2,0.1-0.1-0.1-0.2-0.1l0,0.4l0.1,1.4c0.1,0,0.2,0,0.3,0c0.1,0-0.1,0.1-0.1,0.2c-0.2,0.1,0.1,0.2,0.1,0.3l-0.1-0.1    c0,0,0,0.2,0.1,0.2c0,0-0.1,0-0.2,0l0,0.3c0.1,0.1,0.2,0.1,0.3,0.1l-0.2-0.3c0.2,0,0.2,0.2,0.4,0.2l-0.1,0.3c0,0,0-0.2-0.1-0.1    c0,0.1,0,0.1-0.1,0.2c0,0-0.1-0.1-0.1-0.1l0.1,1.6c0,0,0,0.2,0.1,0.2l-0.1,0l-0.1,4c0,0.1,0,0.2,0,0.4c0.1,0,0.2-0.1,0.2,0    c-0.1,0-0.1,0-0.2,0c0,0.1,0,0.1,0,0.2c0,0,0.1,0,0.1,0.1l-0.1,0c0,0.1,0,0.2,0,0.4c0.1,0,0.2-0.1,0.3-0.1    c-0.1,0.1-0.1,0.2-0.3,0.3c0,0.1,0,1.2,0,1.3c0.1,0.1-0.1,0.4,0.2,0.4c-0.2,0.1-0.1,0-0.2-0.1c0,0.2,0,1.8,0.2,2.4    c0,0-0.1,1.1-0.1,1.5c-0.1,0.4-0.1,0.8,0,1.2c0,0.2-0.1,2.1-0.1,2.9c0,0.1,0,0.1,0.1,0.2c0,0.4,0,0.8,0,1.2c0,0.2-0.1,0.4-0.1,0.6    c-0.1,0.4,0,0.8-0.1,1.2c-0.1,0.2-0.2,0.4-0.3,0.6l-0.5,0.3l-5.8,0.1c0,0-0.1,1.1-0.1,1.4c0,0.4,0,0.8,0,1.2    c0,0.2,0.1,0.3,0.2,0.3l0,0.2c0,0,0.6,0.1,1.2,0.1c0.1,0,0.2,0.1,0.3,0.1c0.2,0.1,0.5,0,0.7,0c0,0,1.2,0,1.6,0    c1.1,0,4.5-0.1,5-0.1c0.3,0.1,0.7,0.1,1,0.2c0-0.1,0.1-0.1,0.1-0.2c0,0.1-0.1,0.1-0.1,0.2c0,0,0.4,0.1,0.6,0.1    c0.1,0,0.2-0.1,0.2-0.2c0.1,0.1,0.1,0.1,0.3,0.1c0.2-0.1,0.4-0.1,0.6-0.1c0.2,0,1.4,0.1,1.8,0.2c0-0.1,0-0.3,0-0.3    c0-0.3,0.2,0.3,0.2,0.3c0.2,0,0.4,0,0.6,0c0.1-0.1,0.2-0.1,0.3,0c0.2,0,0.3,0,0.5,0c0,0,0.1-0.1,0.1-0.1l-0.2-1l0.2-0.6l0.6,0.8    l0.1,0.3c0.1,0,0.1,0.1,0.1,0.3c0-0.2,0.2,0.1,0.4,0l0,0.1c0.1,0,0.2,0,0.3,0c0,0,0.1-0.1,0.2,0c0.2,0,0.4-0.1,0.4-0.1l0-0.1    c0,0,0.2-0.5,0.2-1.4c0-0.1,0-0.3,0-0.4c0-0.5,0-1.1-0.1-1.5l0-0.1h-0.2c-0.9,0-3.6,0-5.3-0.5c-0.2-0.1-0.6-0.2-0.6-0.2    c-0.1-0.1-0.2-0.2-0.3-0.3c-0.1-0.2-0.1-0.3-0.1-0.5c-0.1-0.4-0.1-0.7-0.2-1c0-0.2-0.1-3.2-0.1-4.4c0-0.3,0-0.9-0.1-1.5    c0.3-0.4,0.1-1.2,0.1-1.6c-0.1-0.7,0-2.4,0-2.4c0-0.1-0.1-0.2-0.2-0.2c0-0.1,0.1-0.3,0.1-0.4c0,0,0.1-0.1,0.1-0.1    c0.1-0.5,0.2-1,0.2-1.5c0-0.1,0-0.2-0.1-0.2c0.1,0,0.2-0.1,0.2-0.2c0-0.4-0.1-0.8-0.1-1.2c-0.1-0.4-0.1-2.1-0.1-2.3    c0-0.7,0-1.6,0-2l-0.1-0.9l0.1-1.8c-0.1-0.9-0.1-1.7-0.1-2.4c0.1-0.1,0.5-0.1,0.6-0.1c0.1,0.1,0.7,0.8,0.9,1    c0.2,0.3,0.3,0.6,0.5,0.9c0.2,0.2,1.3,1.1,1.3,1.3c0,0.1,0.1,0.2,0.2,0.2c0.3,0.3,1,1.5,1.3,1.8c0.2,0.3,0.5,0.4,0.7,0.7    c0.2,0.3,0.4,0.5,0.7,0.8c0.1,0.1,0.1,0.1,0.2,0.1c0.2,0.3,1.6,2,2.1,2.6c0.5,0.6,1.2,1,1.7,1.6c0.4,0.5,0.9,0.9,1.3,1.4    c0.1,0.2,0.2,0.4,0.4,0.6c0.1,0.2,0.5,0.3,0.6,0.5c0,0.1,0.1,0.2,0.2,0.2c0.6,0.4,1.1,1,1.5,1.6c0.3,0.4,0.7,0.7,1.1,1    c0,0,0.4,0.6,0.7,0.7c0.2,0.3,0.5,0.6,0.7,1c0,0,0.9,0.7,0.9,0.7c0.1,0.3,0.4,0.5,0.5,0.7c0.2,0.4,0.4,0.6,0.8,0.9    c0.1,0.1,0.2,0.1,0.2,0.1c0.1,0.1,0.2,0.2,0.3,0.3c0,0,0,0,0,0.1c0.2,0.5,0.7,0.9,1,1.3c0.3,0.3,0.6,0.6,0.9,0.9    c0.7,0.8,1.5,1.6,2.2,2.5c0.2,0.3,0.4,0.7,0.7,1c0.1,0.1,0.1,0.1,0.2,0.1c0,0,0,0,0,0.1c0.1,0.3,0.2,0.4,0.5,0.6    c0.3,0.2,0.5,0.2,0.7,0.5c0.1,0.1,0.2,0.3,0.3,0.4c0.2,0.3,0.5,0.5,0.8,0.8c0.1,0.2,0.3,0.3,0.5,0.4c0.3,0.3,0.4,0.5,0.5,0.5    l0.6,0.3l1.8,0l0.6-0.6c0,0,0-0.2,0-0.3l-0.3,0.1c0,0,0-0.3,0.1-0.3c0,0,0.1,0,0.2,0c0,0,0-0.1,0-0.1c-0.1,0-0.3-0.1-0.3-0.1    l0-0.1c0-0.1,0.2,0.1,0.3,0.1c0,0,0-0.1,0-0.1c-0.1-0.1-0.3-0.1-0.1-0.2c0,0.1,0,0.1,0.1,0.1c0-0.1,0-0.1,0-0.2l-0.2,0    c0-0.3,0.1-0.5,0.2-0.8c0-0.4,0-0.9,0-1.3c-0.7-0.2,0.3-0.5,0-0.9c0,0,0-0.2,0.1-0.3c0-1,0.1-3,0.2-3.1c-0.1,0-0.1,0-0.2,0    c0.4-0.1-0.4-0.5-0.2-0.5c0-0.1,0.2-0.1,0.4,0l0-0.1c-0.2-0.1-0.6,0-0.3-0.2c0,0,0.1,0.1,0.1,0.1c0,0,0.1,0,0.2-0.1l-0.3-1.7    c0-0.3,0.2-2.5,0.3-3.3c0-0.4,0.1-1.3,0.1-1.3l-0.3,0c-0.2,0,0-0.1,0.3-0.1c0-0.3,0.1-0.8,0.1-0.8c0-0.2-0.5,0.2-0.5-0.1l-0.9,0.1    l-0.7-0.1l0.1-0.7l0.9-0.6c0,0,1.2-0.6,1.2-0.7l0.2,0c0-0.1,0-0.3,0-0.3c-0.2-0.1,0-0.3,0.1-0.3c0-0.2,0-0.8,0-0.8    c-0.2-0.1-0.1-0.3,0-0.4c0-0.1,0-0.6,0-0.6c0,0-0.1,0-0.2,0c0.1,0,0.1,0,0.2-0.1c0-0.1,0-3,0-3.2c-0.1,0-0.2,0-0.3-0.1    c0.1,0,0.1-0.1,0.2-0.1c0,0,0-1.9,0-3.1l0.2-2.7l-0.1-3.6c0,0,0.1-1.5,0.5-2.3c0.1-0.3,0.4-0.5,0.6-0.8c0.2-0.1,0.5-0.1,0.7-0.2    c0.4-0.1,1.9-0.3,2.3-0.4c0.1,0,0.2,0,0.2-0.1c0.6,0,2.5-0.1,3-0.1c0,0,0.6-0.3,0.6-0.3c0.6,0.2,0.8,0,0.8,0l0.2,0    c0,0,0.1-0.2,0.1-0.2C70.9,82.8,71,82,71,81.8z M24,80.5c0-0.4,0,0,0.2,0C24.1,80.4,24,80.5,24,80.5z M26.3,93.1    c0-0.1,0.1,0,0.1,0C26.5,93.3,26.4,93.1,26.3,93.1z M26.6,80.4l-0.1-0.2C26.5,80.2,26.6,80.2,26.6,80.4L26.6,80.4z M26.5,105.1    c0,0,0,0.1,0,0.1C26.3,105.3,26.5,105.2,26.5,105.1z M26.4,102.9C26.4,102.9,26.4,102.8,26.4,102.9l0.1-0.1L26.4,102.9z     M26.6,96.8c-0.2,0-0.2,0-0.2-0.1c0.1,0,0.1-0.1,0.1-0.1C26.4,96.7,26.7,96.6,26.6,96.8z M61.3,98.7c-0.1-0.1-0.3-0.1-0.3-0.2    c0.1,0.1,0.2,0,0.4,0C61.3,98.6,61.3,98.6,61.3,98.7z"/>
            <path class="st0" d="M115.4,106.5l-0.9-0.6c-0.3,0-1-0.2-1.2-0.2l-0.1,0c0,0-0.8,1.3-1.1,1.9c-0.1,0-0.1,0-0.2,0.1    c-0.1,0.2-0.3,0.3-0.3,0.5c-0.1,0.1-0.1,0.3-0.1,0.4c-0.1,0.1-0.2,0.3-0.3,0.4c0,0,0,0,0,0c-0.2,0.1-0.3,0.3-0.4,0.5    c-0.2,0.2-0.6,1-0.7,1.2c-0.1,0.3-0.7,1-0.9,1.2c-0.3,0.1-0.5,0.3-0.8,0.5c-0.3,0.3-0.7,0.5-1,0.9c0,0-0.4,0.2-0.5,0.3    c-0.7,0-1.4,0-2,0c0,0-0.1-0.1-0.1-0.1c-0.8,0-2.5,0.1-2.5,0.1c-0.1-0.1-0.1-0.1-0.3-0.1c0,0-0.1,0-0.1,0c-0.3,0-0.7-0.1-1-0.1    c-0.4,0-1.3,0.1-1.3,0.1c-0.2,0-0.5-0.2-0.7-0.1c-0.2,0-0.4,0.1-0.5,0.2c-0.2,0.1-0.4,0.1-0.6,0.1c-0.1,0-0.2,0-0.4,0    c-0.2,0-0.4-0.1-0.5-0.1c-0.3-0.1-0.5-0.2-0.7-0.5c-0.1-0.1-0.2-0.2-0.4-0.4c0.1,0,0.1-0.1,0.1-0.2c0-0.2-0.1-0.5-0.2-0.7    c0-0.5,0-1.1,0-1.5c0-0.6,0.1-1.2,0.1-1.8c0.1-0.8,0.1-1.6,0.1-2.6c0-0.5,0.2-2.8,0.3-3.3c0.2-0.1,0.4-0.1,0.5-0.3    c0.3,0,0.8,0,1.2-0.1c0.4,0,0.8,0.1,1.2,0.1c0.4,0,0.9,0.1,1.2-0.1c0,0,0,0,0.1-0.1c0,0,0,0,0,0c0,0,1.1,0.1,1.3,0.1l0.5,0.3    c0,0.1,0.1,0.1,0.1,0.2l1.2,3.8c0,0.1,0,0.3,0.1,0.4l0.1,0.2h0.2c0.1,0.1,0.2,0.1,0.4,0.1c0.1,0,0.2,0,0.2-0.1h1.3    c0,0,0-0.5,0-0.7l-0.1,0l0-0.2c0-0.1,0-0.3,0-0.4c0,0-0.1,0-0.1,0l0-0.1c0,0,0.1,0,0.1,0c0-0.1,0-0.2,0-0.4c0,0,0.1-0.2,0.1-0.3    c-0.1-0.6,0-1.2,0-1.8c-0.3-0.1-0.1-0.3,0-0.4c0-0.4,0.1-0.8,0-1.2c0-0.4-0.1-0.7-0.1-1.1c0-0.2,0-0.5,0-0.7c0,0,0-0.1,0-0.1    c0-0.2-0.1,0.1-0.1-0.1l-0.2-0.3l-0.4-0.3l-0.8-0.4v-0.6l0.5-0.3l0.8,0.4l0.3,0c0-0.3,0-0.5,0.1-0.8c0-0.1,0-0.2-0.1-0.3    c0,0,0,0,0-0.1c0,0,0.1-0.1,0.1-0.1c0.1-0.4,0.1-0.8,0.1-1.2c0,0-0.5,0-0.5-0.2c0.1,0,0.1,0.1,0.2,0.1c0.1,0,0-0.1,0-0.1    c0.1,0,0.3,0,0.3,0c-0.3-0.1,0-0.2-0.1-0.4c0.1,0,0.1,0,0.1,0c0-0.6,0-0.9-0.1-1l-0.1-0.1h-2c0,0-0.2,0.4-0.2,0.6    c0,0-0.1,0.1-0.1,0.1c-0.1,0.2-0.2,0.4-0.3,0.7c-0.1,0.2-0.1,0.4-0.1,0.6c0,0-0.4,1.1-0.7,1.6c-0.2,0.2-0.4,0.4-0.6,0.6    c0,0,0,0.1,0,0.1c-0.1,0.1-0.2,0.1-0.3,0.2c-0.5,0.2-1.1,0.3-1.2,0.2l-0.5,0.2c-0.6,0.1-1.1,0-2.2,0c0,0,0-0.1-0.1-0.1    c-0.2-0.1-0.3-0.1-0.6-0.2c-0.1,0-0.3,0-0.3,0.1c0,0,0,0.1-0.1,0.1c0,0-0.1-0.1-0.1-0.1c-0.2,0-0.4-0.4-0.4-0.5c0-0.1,0-0.3,0-0.4    c0-0.5,0-1,0-1.4c0.1-0.1,0.1-0.1,0.1-0.2c0,0,0-0.1,0-0.1c0-0.1,0-0.2-0.1-0.2c0-0.2,0-0.5,0-0.7c0-0.1,0-0.9,0-1.2    c0,0,0.1-0.1,0.1-0.2c0-0.9,0-1.8,0-2.7c0-0.4,0.1-1.1-0.2-1.5c0,0,0,0,0,0c0-0.6,0-2,0-2c0.2-0.2,0.3-0.3,0.5-0.5    c0.4,0,0.9-0.1,1.4-0.1c0.4,0,1.2,0.1,1.6,0.1l1.4-0.1c0.6,0.1,1,0.1,1.5,0.1c0.1,0,1.5,0,2,0c0.2,0.1,0.3,0.1,0.5,0.2    c0.1,0.1,0.5,0.2,0.6,0.3c0.1,0.1,0.1,0.1,0.2,0.1c0.1,0.1,0.1,0.2,0.2,0.3c0.2,0.2,0.3,0.4,0.5,0.6c-0.1,0.1-0.2,0.3,0,0.4    c0.3,0.2,0.6,0.5,0.8,0.8c0.1,0.1,0.1,0.1,0.2,0.1c0.5,0.7,1,1.4,1.4,2.1c0.1,0.1,0.1,0.3,0.2,0.4c0.2,0.3,0.4,0.3,0.7,0.2    c0.1,0,0.1-0.1,0.1-0.1l0.5,0c0.5-0.1,1.1-0.7,1.1-0.7l0-0.1l-1.3-3.9c0-0.1,0-0.2,0-0.2c-0.1-0.2-0.1-0.4-0.2-0.6    c-0.1-0.2-0.2-0.5-0.2-0.7c-0.2-0.4-0.3-1.1-0.4-1.5c0-0.2-0.3-0.3-0.4-0.2l0-0.1l-0.1,0c-0.1,0-1.4-0.2-2-0.1    c-0.9,0.1-1.6,0.1-2.3,0.1c0-0.1-0.1-0.2-0.3-0.2c-0.1,0-0.1,0-0.2,0c-0.1,0.1-0.2,0.1-0.3,0c-0.7,0-1.5,0.1-2.2,0.1    c-0.6,0-3.8,0-3.8,0c0,0,0-0.1-0.1-0.1C97.4,84,97,84,96.7,84c0,0.1-0.1,0.2-0.2,0.2c0,0,0.1-0.1,0.1-0.1c0,0-0.1,0-0.1,0    c0,0,0-0.1,0-0.1c0,0,0,0,0,0c-0.1,0.1-0.2,0-0.4,0.1c0,0,0,0,0-0.1c-1,0-2,0.1-3.1,0.1c0,0,0,0.2,0,0.2c0,0.1-0.1,0-0.2-0.1    c0,0,0,0,0,0c-0.1,0-1.3,0-1.5,0c-0.1,0-0.2,0.1-0.3,0.1l0,0.1c-0.2-0.1-0.6,0.2-0.7-0.1c0,0.1-0.2,0-0.3,0l0-0.1    c-0.1,0-0.1,0-0.2,0c0,0-0.2,0.1-0.3,0.1c0,0-0.3-0.1-0.3-0.1c0,0-0.8,0.3-1,0.1l-0.2,0c0.1,0,0.1-0.1,0.1-0.1c-0.2,0-0.3,0-0.5,0    c0,0,0,0.1,0,0.1c0,0,0,0,0,0.1c-0.1,0-0.1,0-0.1,0.1c-0.1-0.2-0.3-0.3-0.3-0.3c0.1,0.2-0.3,0-0.2,0.2C87,83.9,87,84.1,87,84    c0.1,0,0.2,0,0.2-0.1c-0.1,0-0.2,0-0.2,0c-0.2,0-0.2,0-0.4,0.1c0,0,0,0.1-0.1,0.2c0,0,0,0-0.1-0.1c-0.1,0-0.3,0-0.3,0l0,0    c0,0,0,0.2,0,0.2c0,0,0,0.4,0,0.9c0,0,0,0.5,0.1,0.7c0,0,0,0,0,0c0,0.4,0,0.6-0.1,0.9c-0.2,0.4,0.4,0.5,0.4,0.5c0.3,0,0.7,0,1.1,0    c0.2,0.1,0.4,0.2,0.7,0.2c0.2,0,0.5,0,0.7-0.1c0.1,0,0.3-0.1,0.5-0.1l0.3,0.5c0.3,0,0,0.2,0.4,0.3l-0.3,0.2l0,0.1    c0.1,0,0.2,0,0.3,0c0,0.1,0,0.1,0.2,0c-0.3,0.2-0.4,0.4-0.5,0.6c0,0,0,0.1,0,0.1c0,0.3,0.2,0.7-0.1,1c0,0,0.2,0,0.2,0    c-0.4,0.1,0.2,0.1,0.2,0.2l-0.5,0.1c0,0,0.3,0,0.4,0c0.1,0.3-0.4,0.5-0.1,0.8c0,0-0.1,0-0.1,0c0,0,0.1,0.4,0.1,0.5l0,0.6    c0,0-0.1,0.1-0.1,0.1c0,0.2,0,0.3,0,0.5l0.1,0l0,0.2c0,0,0,0,0,0c0,0,0,0-0.1,0c0,0.1,0,0.1,0,0.2c0,0,0.2,0,0.2,0l0,0.1    c0,0-0.1,0-0.2-0.1c0,0,0,0.9,0,0.9l0,1.2c0.1,0.1,0.1,0.1,0,0.2l0,1.2c0,0.7,0,1.5,0,2.2c0.1,0.1,0.2,0.1,0.2,0.2    c0,0-0.1,0-0.2,0c0,0,0,0.1,0,0.1c0.1,0,0.2,0,0.1,0.1c0,0,0,0-0.1,0c-0.1,0.1-0.1,0.5-0.1,0.5c0,0.3-0.1,0.7-0.1,1    c0,0.2,0,0.3,0,0.5c0.2,0,0.3,0.1,0.3,0.2c-0.1,0-0.1-0.1-0.2-0.1c-0.1,0,0,0.1,0,0.1c0,0-0.1,0-0.1,0c0,0,0,1.3,0.1,1.9    c0,0.1,0,0.1,0.1,0.1l0,0.8l0.1,0c0.2,0,0,0-0.1,0.1l0,1.5l0.2,0c-0.1,0.1,0.3,0.4-0.2,0.5l0,0.2c0,0.5-0.1,0.9-0.1,1.4    c0,0.1,0,0.1,0.1,0.2l0,1.3c-0.1,1-0.1,1.6-0.1,1.8c0.1,0,0.2,0,0.2,0c-0.1,0-0.1,0-0.2,0.1l0,0c0,0.2,0.1,0.3,0.1,0.5    c0,0,0,0.1,0,0.1c-0.1,0-0.2,0-0.3,0.2c-0.1,0.3-0.1,0.5-0.2,0.8l-0.3,0.1l-1.6,0.2l-0.4,0c0,0-0.7-0.2-1.1-0.2    c-0.1,0-0.3,0.1-0.3,0.2c0,0-0.2,0-0.2,0l0.2,2c0.2,0.1,0.3,0.1,0.5,0.2c0,0,0-0.1,0-0.1c0.1,0.2,0.1-0.1,0.2-0.1l0.1,0.3    c0.1,0,0.1-0.1,0.1-0.2c0.3,0.1,0.6,0.4,0.9,0.3c0.3,0,0.5,0,0.8,0c0.3,0.1,0.7,0.1,1.1,0.1c0.3,0,0.6-0.1,0.9-0.1    c0.2,0.1,0.4,0,0.7,0c0.4,0,0.9,0.1,1.4,0.1c0.1,0,0.2-0.1,0.2-0.2c0,0,17.9-0.1,18.8-0.1c0.1,0,0.3,0,0.8-1.3    c0.1-0.1,0.2-0.2,0.3-0.4c0.1-0.2,0.1-0.5,0.2-0.6c0.1-0.1,0.1-0.2,0-0.3c0-0.1,0.1-0.3,0.1-0.3c0.1,0,0.1-0.1,0.1-0.2    c0.1-0.4,0.7-1.3,0.8-1.7c0-0.1,0-0.2,0-0.2l0-0.1c0.1,0,0.1-0.1,0.1-0.2c0.1-0.5,0.7-1.7,0.9-2.2c0.2-0.4,0.4-0.7,0.5-1.1    c0.1-0.1,0.1-0.3,0-0.4L115.4,106.5z M86.6,84.2l0-0.1l0.1-0.1L86.6,84.2z M86.8,84.2l0-0.1L86.8,84.2L86.8,84.2z M87.3,84.2    C87.3,84.2,87.3,84.1,87.3,84.2c0-0.1,0.1,0,0.1,0L87.3,84.2z M89.4,113.2c-0.1,0,0.2,0,0.3,0C89.6,113.2,89.4,113.2,89.4,113.2z     M89.9,87.8C90,87.8,90,87.7,89.9,87.8l0.4,0L89.9,87.8z M89.9,110.4c0.1-0.1,0.2-0.1,0.1-0.2c0.1,0.1,0.3,0.1,0.3,0.2    C90.2,110.4,90.1,110.4,89.9,110.4z M90.4,88L90.4,88l0.1-0.1L90.4,88z M105.4,113.6L105.4,113.6l-0.1,0.1L105.4,113.6z     M105.8,113.9l-0.3-0.1L105.8,113.9C105.7,113.8,105.8,113.8,105.8,113.9z"/>
            <path class="st0" d="M177.6,84.1c-0.5,0-0.3,0-1-0.1l-0.8,0c-0.1,0.2,0.2,0.5,0,0.5c0-0.2,0-0.3-0.1-0.5l-0.2,0    c0,0.1-0.1,0.3-0.2,0.3l0-0.3c0,0-0.5,0-0.5,0c0,0.2,0.2,0.6,0.2,0.7c-0.2-0.3-0.3-0.1-0.4-0.6l0.1-0.1c0,0-0.1,0-0.3,0    c-0.1,0.1-0.1,0.2-0.2,0c-0.3,0-1.2,0-1.6,0l0,0.3l0,0l0-0.3c0,0-0.1,0-0.2,0c-0.1,0.2-0.1,0.3-0.2,0.1c0,0,0,0,0.1,0l-0.1-0.1    c0,0-0.6,0-0.6,0c-0.1,0.6-0.7,0-0.7,0.8c-0.2-0.3,0-0.2,0.2-0.6L171,84l-0.2,0c-0.1,0.1-0.1,0.2-0.2,0.2c0,0,0-0.1,0-0.2l-0.3,0    c0,0.2,0.1,0.3,0,0.4l-0.1-0.4l-0.1,0c-0.1,0.1-0.2,0.1-0.3,0c0,0-0.3,0-0.3,0c0,0,0,0.3-0.1,0.3l0-0.3c0,0-0.1,0-0.1,0    c-0.2,0.1-0.4,0.4-0.5,0.3c0-0.1,0-0.2-0.1-0.3l-0.2,0l-0.2,0.2c0,0,0.1-0.1,0.1-0.2l-0.1,0c-0.2,0-0.4,0-0.5,0.1    c-0.1,0.1-0.1,0.3,0,0.6c0,0.2,0.1,0.4,0.1,0.6c0,0.5,0.1,1.4,0.4,1.4c0.2,0,0.5,0,0.9,0.1c0.5,0,1.7,0.1,2.3,0.2    c0,0.3,0.1,1,0.1,1c-0.1,0.5-0.4,0.9-0.5,1.4c-0.1,0.4-0.2,1.8-0.3,2.3c-0.3,0.3-0.5,0.7-0.6,1.2c0,0.4-0.2,0.9-0.3,1.3    c-0.1,0.2-0.6,1.7-0.7,2.1c0,0.2-0.1,0.3-0.1,0.5l-0.7,1.9l-0.5,1.6l-0.7,1.5l-0.6,1.4c-0.1,0-0.2,0-0.3,0.2    c-0.1,0.5-0.6,1.2-0.5,1.8l-0.7,1.8c-0.1,0-0.2-0.1-0.3-0.1c0-0.1,0-0.1-0.1-0.2c0-0.1,0-0.1,0-0.2c-0.1-0.3-0.2-0.7-0.8-2    c0,0-0.2-0.7-0.1-1c0-0.2,0-0.3,0-0.4c-0.1-0.4-0.3-0.8-0.5-1.1c0,0-1.8-5.8-1.8-5.8l-0.1-0.7l-1.2-3.7l-0.1-1l-0.8-3    c0.1-0.4,0.4-0.4,0.8-0.5c0.2-0.1,0.4-0.1,0.6-0.2c0,0,1.4,0.1,2.4,0c0,0,0.1-1.6,0-2.8c0,0-0.8-0.1-1.9-0.1l-2.1-0.1    c-0.4,0.1-5.5,0-6.3,0c-0.5,0-1.9,0-2.5,0.1l-1.2,0l0,0.2l-0.3,0.2l-0.2,0l0.1,2.5l0.1,0c0.1,0.1,1.6,0.1,1.6,0.1c0,0,0,0,0,0.1    c0.1,0.1,0.3,0.1,0.4,0c0,0,0.2,0,0.2,0c1.3,0,1.8,1.8,2.4,4.4l0.1,0.3c0,0.1,0,0.2-0.1,0.3c-0.1,0.5-0.4,1-0.5,1.6    c0,0,0,0.1,0,0.1c-0.4,1-1.5,3.1-1.6,3.6c0,0.1,0,0.2,0.1,0.3l-0.1,0.2c0,0-1.4,2.1-1.4,2.3c-0.1,0.2-0.1,0.4-0.1,0.6l-0.7,1.5    l-0.1,0.5l-1.1,2c0,0.1-0.7,1.4-1.1,2.3c0,0-0.1,0-0.1,0c-0.1,0-0.1,0-0.2,0c-0.5-1.3-0.8-2.3-1.1-3.2c0.1-0.1,0.1-0.1,0.1-0.3    c-0.1-0.4-0.3-0.7-0.5-1.1l-1.2-3.8l-0.4-1.4c0.1-0.4-0.2-1.2-0.5-2.1c-0.4-1.1-0.9-2.3-0.8-3.3l-0.2-1l-0.3-0.7    c-0.1-0.3-0.1-0.6-0.1-0.8c-0.1-0.5-0.1-1-0.4-1.6l0-0.7c1.1-0.4,3.2-0.3,3.2-0.3l0.1,0l0-0.1c0,0,0.1-0.6,0.1-1    c0-0.6-0.1-1.6-0.1-1.7l0-0.1l-0.5,0c0,0.1,0.1,0.2,0,0.3l-0.1-0.3l-0.9,0c0,0,0,0.3-0.1,0.3c0,0,0.1-0.3,0-0.3l-0.1,0    c-0.2,0.1-0.4,0.4-0.6,0.3c0-0.1-0.1-0.2-0.1-0.3l-0.1,0l-0.2,0.2c0,0,0-0.1,0-0.2l-0.6,0l-0.9-0.1c-0.3,0-4.6,0.1-6,0.1l-0.9,0.2    l-1.3-0.1l-1.8,0.1l0,0.1c-0.1,1.2,0.2,2.7,0.3,2.7l0,0.1c0,0,2,0,2,0c0.3,0.3,0.7,0.2,1,0.3c0.1,0,0.2,0,0.2,0    c0.1,0.1,0.3,0.2,0.3,0.3c0,0.1,0.1,0.3,0.1,0.4l0.2,0l-0.1,0.1c0,0,0.1,0.3,0.1,0.3c0,0.1,0,0.3,0,0.4c0,0,0.1,0,0.2-0.1    c-0.1,0.1-0.1,0.2-0.2,0.3c0,0.1,0,0.2,0.1,0.3c0.1,0.3,0.3,0.5,0.4,0.8c0.2,0.6,0.7,2.1,0.7,2.2c0,0.6,1.1,3.4,1.3,4l0.5,2    l0.4,0.7l0.1,0.6l0.4,0.5c0,0,1.8,6.5,2.2,7.6l0.2-0.1c0.2-0.1,0,0.1-0.2,0.2c0.2,0.5,0.4,1,0.6,1.4c0,0,0.1,0.3,0.1,0.3l0.1,0    c0,0.2,0.4,0.4,0.1,0.6l1.8,5.7c0.1,0,0.1,0,0.2,0c-0.1,0-0.1,0.1-0.2,0.1l0.2,0.6c0,0,0.9,0.1,1.2,0.1c0.5,0,1.2-0.2,1.2-0.2    l0.8-1.2c0,0,2.4-5,2.6-5.6c0.1-0.1,0.1-0.2,0-0.3l0-0.1c0-0.1,0.1-0.6,0-0.7c-0.3-0.4-0.5-1.3-0.4-1.3l0-0.8    c0.3,0,0.6,0.6,0.6,0.6l0.6,0.5c0.2-0.3,0.4-0.6,0.6-0.9c0.2-0.3,0.2-0.7,0.4-1c0-0.1,0.1-0.1,0-0.2l1.1-2.3c0,0,0.6-1.6,1.4-3.5    c0.5-1.2,1.3-2.5,1.7-3.3c0.1,0.1,0.1,0.2,0.2,0.3l0.1,0.4c0,0.3,0.1,0.7,0.2,1c0,0.1,0.1,0.1,0.2,0.2l0,0.1c0,0.4,0,0.8,0.1,1.1    c0.1,0.5,0.3,1,0.6,1.5c0,0.1,0.1,0.1,0.2,0.1l0.2,0.5c0.1,0.3,0.1,0.5,0.1,0.8c0.1,0.5,0.5,1.5,0.6,1.5c0,0.6,0.1,1.2,0.3,1.7    c0.2,0.6,0.9,3,1.3,3.3l0.4,1.5c0.9,2.1,0.8,2.4,0.9,2.7c0.1,0.6,0.6,1.1,0.8,1.7c0,0.1,0.1,0.2,0.2,0.2l0.6,1.7l0.7,0.1l1.5-0.1    l0.3-0.7c0-0.1-0.3-0.2-0.3-0.2l0.4,0l0-0.1c-0.1,0-0.2-0.1-0.2-0.1c0-0.4,0.6-0.5,0.5-0.9c0.1,0,0.1,0,0.2,0l0-0.1    c-0.1-0.1,0.1-0.3,0.2-0.4l0.6-1.6l-0.3,0c0,0,0.1-0.2,0.2-0.2c0,0,0.1,0,0.3,0l0-0.1c0-0.1-0.1-0.1-0.2-0.2l0-0.1    c0-0.1,0.1,0.2,0.3,0.2l0-0.1c-0.1-0.1-0.3-0.3-0.1-0.2c0,0.1,0,0.1,0.1,0.1l0.1-0.2l-0.2-0.1c0.1-0.3,0.4-0.5,0.5-0.8l0.4-1.1    c-0.7-0.4,0.4-0.4,0.2-0.8c0,0,0.1,0,0.1,0c0-0.1,0-0.2,0.1-0.3l1.1-3c0-0.2-0.3-0.4-0.2-0.4c0.1-0.1,0.2,0,0.3,0.1l0-0.1    c-0.2-0.1-0.4-0.1-0.1-0.2c0,0,0,0.1,0.1,0.1c0,0,0,0,0.1,0l0.8-2.4c-0.1-0.1-0.1-0.1-0.1-0.2c0,0,0.1,0.1,0.1,0.1l1.2-2.8    c0,0,0-0.2,0.1-0.5l-0.1,0c-0.2-0.1,0-0.1,0.2,0c0.1-0.4,0.3-1,0.7-1.3l0.1-0.2c0-0.1,0-0.1,0-0.2l-0.2-0.1l-0.6-0.1l0-0.6    c0,0,0.4-0.2,1.1-0.1c0.1,0,0.2,0,0.2,0c0,0,0.1-0.2,0.1-0.2c-0.1-0.1,0.1-0.2,0.1-0.2l1.4-3c0-0.1,0-0.2,0.1-0.2    c0-0.1,0-0.1-0.1-0.2c0-0.1,0.1,0,0.2,0c0,0,0-0.2,0-0.2c0,0,0,0.1,0,0.1c0-0.1,0.2-0.5,0.2-0.6l-0.1-0.1c-0.1,0-0.3-0.1-0.3-0.1    c0.1,0,0.2,0,0.3,0l0.1,0.1c0,0,0.1,0,0.1,0.1c0.1-0.2,0.5-1.5,1-2.3c0-0.1,0.1-0.1,0-0.2c0,0-0.2-0.1-0.2-0.1    c0,0,0.2,0.1,0.2,0.1c0.2-0.2,0.4-0.4,0.6-0.7c0.2-0.4,0.3-0.7,0.6-1.1c0.2-0.2,0.5-0.5,0.7-0.7l2.2-0.2h0.8    c0.3,0,0.5-0.2,0.6-0.7c0.1-0.3,0.1-0.7,0.1-1.1l0.1-1.2C181,84.1,178,84.1,177.6,84.1z M170.5,84.7c0-0.4,0.1,0,0.2,0    C170.7,84.7,170.6,84.7,170.5,84.7z M144.3,84.5c0,0-0.2,0.1-0.2,0.1C144.1,84.1,144.3,84.5,144.3,84.5z M134.4,88.4L134.4,88.4    l0.1-0.1L134.4,88.4z M142.8,114.7c0.1-0.1,0.1-0.2,0-0.2c0.1,0,0.3,0,0.4,0.1C143.1,114.6,143,114.7,142.8,114.7z M174.2,92.6    c-0.2,0.1-0.3,0-0.3,0C174.1,92.6,174.2,92.6,174.2,92.6z M173.5,93c-0.1-0.1-0.2-0.2-0.2-0.3c0.1,0.1,0.2,0,0.4,0.1    C173.5,92.9,173.5,92.9,173.5,93z M175.3,84.7l-0.1-0.2C175.2,84.5,175.3,84.5,175.3,84.7L175.3,84.7z M174.1,91.6    c0.1,0.1,0.1,0,0.2,0l0.1,0.1C174.2,91.7,174.1,91.7,174.1,91.6z M174.4,91.4C174.4,91.4,174.4,91.4,174.4,91.4    C174.3,91.4,174.4,91.3,174.4,91.4C174.4,91.4,174.4,91.4,174.4,91.4C174.5,91.6,174.5,91.5,174.4,91.4z"/>
            <path class="st0" d="M382.2,120.6c-2,0.2-6.7,0.6-9-3.5l-0.5-0.2l-0.3-0.4l-0.9-1c-0.1-0.3-1.3-1.6-3.2-3.9c0.1-0.3-1-1.6-1.3-1.9    c-0.2-0.3-0.5-0.7-0.8-0.9c-0.1-0.1-0.3-0.2-0.4-0.4c-0.3-0.4-0.6-0.8-0.9-1.2c0-0.1,0.1-0.2,0-0.3c-0.7-0.7-1.1-1.5-1.7-2.2    c0,0-0.1,0-0.1,0c-1.1-1.6-2-2.9-2.1-3.5c0-0.1,0.1-0.1,0.3-0.2c0.3-0.1,0.5,0.1,0.8,0c0.3,0,0.4-0.2,0.6-0.4    c0.2-0.1,0.5-0.2,0.8-0.3c0.4-0.2,0.9-0.6,1-0.8c1.4-0.8,2.6-2,3.2-3.6c0.1-0.2,0.4-0.3,0.4-0.6c0-0.4,0-1.6,0-2    c0-0.2,0.1-0.3,0.1-0.5c0.1-0.5-0.1-0.9-0.1-1.4c0-0.1,0-0.2-0.1-0.2c0,0-0.1-0.5-0.1-0.7c-0.1,0-0.1,0.1-0.2,0.1    c-0.2,0,0-0.1,0.1-0.2c0-0.1-0.1-0.2-0.1-0.4c-0.1,0-0.2-0.1-0.1-0.1l-0.3-0.2h-0.6l-0.4-0.2l0.2-0.2l0.4-0.3l0.3,0    c-0.1-0.1,0-0.1,0-0.2c-0.1-0.1-0.1-0.3-0.2-0.4c0,0.1,0,0.1-0.1,0.1c0.1-0.3-0.3,0.1-0.3-0.2c0.2-0.1,0.2-0.1,0.3-0.1    c-0.3-0.5-0.5-0.9-0.7-1.2l-0.5-0.4c-0.7-1.1-3.1-2.1-4.8-2.4c0,0.1,0,0.1-0.1,0.1c0,0,0-0.1,0-0.1c-0.2,0-0.5-0.1-0.5-0.1    c-0.1,0-0.3,0-0.5,0c0.1,0.2,0.1,0.3,0.1,0.4c-0.1-0.2-0.3-0.2-0.4-0.4c-0.6,0-1,0-1.7-0.2l-0.3,0c-0.2,0.2-0.7-0.1-0.7,0.5    c-0.2-0.3,0-0.2,0.2-0.6l-0.6-0.1c0,0,0,0.1-0.1,0.1c0,0,0-0.1,0-0.1l-0.3,0c0,0.1,0.1,0.3,0,0.3l-0.1-0.3c-0.1,0-0.4,0-0.5,0    c-0.1,0-0.3,0-0.5,0c0,0,0,0.3-0.2,0.3l0.1-0.3c0,0-0.3,0-0.3,0c-0.2,0.1-0.4,0.3-0.5,0.2c0-0.1,0-0.1-0.1-0.2c-0.1,0-0.2,0-0.3,0    l-0.2,0.1c0.1,0,0.1-0.1,0.1-0.1c-0.1,0-0.2-0.1-0.2-0.1l-0.3,0c-0.1,0-0.2,0.1-0.3,0l-2.9,0.1c-0.4,0.1-0.9,0.1-1.3,0    c-0.4,0-0.7,0-0.9,0l-0.6-0.2l-0.8,0.1l-0.9,0c-0.3,0-1.7-0.1-2-0.1c-0.1,0-0.2,0-0.3,0l0.1,0c-0.1-0.1-0.4,0.2-0.6,0    c0,0,0.1-0.1,0.1-0.1c-0.1,0-0.4,0-0.4,0c0,0,0,0.1-0.1,0.1c0,0,0,0,0-0.1c0,0-0.9,0-1,0l0,0.1c-0.1,0-0.2,0-0.2-0.1    c-0.6,0-0.9,0.1-1.3,0.1c-0.1,0-0.1,0-0.2,0.1c-0.1,0.1-0.1,0.5,0,1.2c0,0.3,0,1.4,0,1.6l0.9,0.1l1,0c0.1,0.1,0.3,0.3,0.5,0.3    c0.3,0.1,0.5,0,0.6-0.1c0,0,1.1,0.1,1.5,0.2c0.6,0.1,1.2-0.1,2.2,0.2l0.2,0.5l0,0.6c0,0,0,0,0.1,0c0,0.1,0,0.1,0.2,0    c-0.1,0.1-0.2,0.2-0.3,0.3l0.2,0.6l0,0.9l0.1,0.8l-0.1,0.8c0,0,0.1,0.6,0.1,1c-0.2,0.4-0.4,0.9-0.4,1.4l0.2-0.1l0,0.2    c0,0.1-0.1,0.1-0.2,0.1c0,0,0,0.2,0,0.2c0.1,0,0.2,0.1,0.2,0.1l0,0.1c0,0-0.1,0-0.2-0.1c0,0.1,0.1,0.4,0.1,0.4c0,0.1,0,0.2,0,0.3    c0,0.1,0.2,0.4,0.3,0.5c0,1.6-0.1,3-0.1,3.1l0.2,1.4l-0.2,1.4c0.1,0.1,0.2,0.1,0.1,0.2c0,0-0.1,0.1-0.1,0.1l0,0.1    c0.1,0,0.2,0,0,0.2c0,0,0.1,2.2,0.1,2.2c0,0.1-0.1,0.2-0.1,0.3c0.1,0,0.1,0.1,0.1,0.1c0,0-0.1,0-0.1-0.1c0,0.2-0.1,0.4-0.1,0.5    c0,0.3,0.1,0.7,0.1,1c0,0.4,0.1,0.7,0.1,1.1c0,0.3-0.1,1.5-0.1,2.3c0,0.4,0.1,0.7-0.1,1l-0.1,0.9c-0.2,0.5-0.4,0.6-0.6,0.7    c-0.1,0.1-0.3,0.1-0.4,0.3c-0.1,0-0.2,0.1-0.3,0.2l-2.8,0.3c0,0-0.1,1.1-0.1,1.5c0,0.4,0,1.2,0,1.2s1.2,0,1.7,0.1    c0.3,0.1,0.6,0.2,0.9,0.2c0.5,0,1.1-0.1,1.6-0.2c0,0,5.7,0.1,5.8,0.1l0-0.1c0-0.2,0-0.1,0.1,0.1c0.4,0,1.3,0,1.4,0l0-0.2    c0.1,0.1,0.4-0.4,0.5,0.2c0,0,0,0,0,0c0-0.2,0.2,0.1,0.3,0c0,0,0.4,0,0.9,0.1c0,0,0.1-0.2,0.1-0.2s0.2-0.1,0.2,0.1    c0,0,0.1,0,0.2,0c0-0.1,0.1-0.1,0.1,0c0,0,0.2,0,0.2,0c0,0,0,0,0-0.1c0,0,0,0,0,0c0,0,0,0,0,0c0.1,0.1,0.1-0.1,0-0.2    c0,0.1,0.1,0.2,0.1,0.2h0.3c0,0,0-0.1,0-0.2c0,0.1,0,0.1,0,0.2h0.3l0-0.3l0,0.3l0,0.1c0-0.1,0-0.1,0-0.2c0,0.1,0.1,0.2,0.1,0.2    h0.1c0,0,0.1-0.1,0.1-0.1c0,0,0.1-1.7,0-2.7l-0.6,0l-0.5-0.1c0,0-0.4,0-0.6,0c-0.3,0-0.5,0-0.8,0.1l-0.6-0.2l-1.1-0.1l-0.4-0.4    l-0.1-0.4l0.1-0.8l-0.1-1l0.1-1c-0.1-0.5-0.1-1-0.1-1.5c0.2-0.2,0.3-0.5,0.3-0.8c0-0.3-0.1-0.5-0.1-0.7c0-0.2,0-0.3,0-0.6    c0.1-0.5,0-1.1-0.2-1.6c0-0.1,0-1.3,0-1.8c0.1-0.2,0.3-0.7,0.4-0.8c0,0,2.4,0.2,2.5,0.3c0.2,0.4,1,2.3,1.4,3.3    c0.5,1.2,1.9,3.4,3,5.1l0.1-0.1l0,0.1c0.2,0.3,0.4,0.6,0.6,0.9c0,0.1,0,0.2,0.1,0.4c0.1,0.4,0.4,0.5,0.6,0.7    c0.3,0.3,0.5,0.7,0.9,1c0.2,0.1,0.3,0.2,0.5,0.4c0.3,0.3,0.6,0.6,0.9,1c0.7,0.9,4.1,4,4.1,4c0.2,0.1,1.1,0.7,1.3,0.8    c0.1,0,0.2-0.1,0.2,0c0,0,0,0.1,0,0.1c0,0,0.1,0,0.1,0c0.1-0.1,0.1,0,0.1,0c0.3,0.2,0.6,0.3,0.9,0.5c0.3,0.2,0.5,0.3,0.7,0.4    c0.2,0.1,0.4,0.2,0.5,0.3c0,0,0.1,0,0.1,0c0,0,0,0-0.1,0c0.6,0.4,1.1,0.8,2.1,1l0.7,0.1l0-0.1c0-0.2,0-0.1,0.1,0.1l0.5,0.1    l0.6,0.2l0.4,0l0.1-0.2l-0.2-0.2l0.5-0.9l0.4,0.1l-0.1,1.1l0.3,0l0.1,0.2c0.1,0,0.8,0,1.1,0c0,0,0.1,0,0.1,0c0,0,0.5,0,0.6,0    c0,0,0-0.1,0-0.1c0,0,0,0.1,0,0.1c0.1,0,0.6-0.1,0.6-0.1l0-0.1l0,0.1c0.1,0,0.1,0,0.2,0l0-0.1l0,0.1c0,0,1.1-0.2,1.4-0.3    c0-0.1-0.1-0.1-0.1-0.2c0,0.1,0.1,0.1,0.1,0.2c0.2,0,0.3-0.1,0.4-0.1c-0.1-0.1-0.1-0.2-0.1-0.3c0,0.1,0.1,0.1,0.1,0.2l0,0.2    c0.3-0.1,0.8-0.3,0.8-0.3S382.2,120.6,382.2,120.6z M357,116l0,0.2l0-0.1L357,116z M356.7,116c0,0,0,0.1,0,0.2    C356.7,116.2,356.7,116.1,356.7,116L356.7,116z M360,84.5L360,84.5l-0.1-0.1C360,84.4,360,84.4,360,84.5z M356.4,84.5    c-0.1,0-0.2,0.1-0.2,0C356.2,84.1,356.3,84.5,356.4,84.5z M360.4,98.1c-0.2,0.1-0.4,0.2-0.5,0.3c-0.3,0.1-0.5,0.1-0.7,0.3    c-0.1,0.1-0.2,0.1-0.2,0.2l-1.2,0.2l-1.4,0l-0.3,0c-0.6-0.1-1.2-0.2-1.5-0.2c-0.2,0-0.4,0-0.6,0c-0.2,0-0.4,0-0.7,0l-0.2-0.1    c0,0,0-0.1,0-0.1h-0.2c0-0.1,0.1-0.2,0.2-0.3c0,0-0.1-0.1-0.1-0.1c0.2-0.2-0.4-0.4-0.3-0.5c0.1,0,0.3-0.1,0.4-0.1l-0.2-0.3    c0.1,0.1,0.1,0.1,0.2,0.1c0-0.1,0-0.2,0-0.3c0,0,0,0,0,0c0-0.1-0.1-0.2,0-0.3c0-0.3,0-0.6,0-1c0,0-0.1,0-0.1-0.1c0,0,0.1,0,0.1,0    c0-0.1,0-0.1,0-0.2c-0.1,0-0.1,0.1-0.1,0.1c0-0.1,0-0.1,0.1-0.2c0-0.1,0-0.2,0-0.2c0,0,0,0,0,0c0,0,0-0.1,0-0.1c0-0.1,0-0.2,0-0.2    c0-0.6,0-1.6,0-2.6c0.1-0.3,0.2-0.6,0.2-1c0-0.4-0.1-0.7-0.2-1.1c0-0.6,0-1,0-1l0.1-1.8c0.1-0.1,0.4-0.1,0.6-0.1l3.5,0    c1.8,0.1,3.8,1.7,3.9,3.2l0.2,0.8c0.1,0.8,0.2,1.6,0.2,2.5c0,0.2-0.1,0.5-0.1,0.8C361.3,95.7,361.2,97.2,360.4,98.1z M380.9,122.1    c0-0.1,0-0.3,0.1-0.3c0,0.1,0.1,0.2,0.1,0.4C381,122,380.9,122,380.9,122.1z"/>
            <path class="st0" d="M421.5,106.9l-0.3-0.1c0,0-0.2-0.1-0.2-0.2l0.4-0.4l0.3,0c0,0,0,0,0-0.1c0.1,0.1,0.2,0,0.3,0l0.1-0.3l0.2-1.7    l-2.3-0.1c0,0-0.4,1.3-0.7,1.9c-0.1,0-0.1,0.1-0.2,0.1c-0.2,0.2-0.3,0.5-0.4,0.8c-0.2,0.4-0.2,0.7-0.4,1c-0.1,0.2-0.2,0.3-0.2,0.5    c-0.2,0.3-0.6,1.1-0.7,1.4c-0.2,0.4-1,1.9-1.4,2.1c-0.1,0-0.2,0-0.3,0c-0.2,0-0.4,0.1-0.5,0.3c-0.3-0.1-0.5-0.2-0.9,0.1    c-0.2,0.1-0.3,0.3-0.4,0.4c-1.4,0.2-2.9,0.4-4.5,0.4c-0.1,0-4.3,0-4.8-0.3c0-0.1,0-0.2,0-0.3c0-0.3-0.1-0.7-0.2-0.9l0.1-1.1    c0.1-0.3,0-0.8,0-1.1c0-0.2-0.1-2.4-0.1-3.4c-0.2,0-0.3,0.1-0.3,0c0.1,0,0.2,0,0.3,0c0-0.1,0-0.1,0-0.2c-0.1,0-0.1,0-0.2-0.1    l0.2,0c0-0.1,0-0.3,0-0.4c-0.2,0-0.5,0.1-0.6,0.2c0.5-0.3,0.6-0.3,0.6-0.3c0-0.4,0-1.3,0-1.3c-0.4-0.1,0.1-0.5-0.6-0.5    c0.3-0.1,0.2,0,0.6,0.2l0,0c0-0.1,0-0.5,0-0.6c-0.1,0-0.2,0-0.3,0l0.3-0.1c0-0.3,0-0.6,0-0.9c-0.1-0.1-0.3-0.2-0.2-0.3    c0,0,0.1,0,0.2,0c0-0.1,0-5-0.1-7.6c0-0.3,0.2-2,0.1-2.5c0,0,0.2-0.9,0.2-1.7c0-0.3,0.2-1.2,0.1-1.6l0.1-0.4c0,0,0.3-0.2,0.3-0.3    c0,0,0.1-0.1,0.1-0.1c0,0,0.6,0,1,0c0.2,0.1,0.3,0.1,0.5,0.1c0.2,0,0.4-0.1,0.6-0.1c0.8,0,1.5,0,1.5,0l0-0.1c0,0,0.1-1.4,0.2-2.1    l-0.2-1c0,0-1.3-0.1-2.1-0.1h-5.4c-0.2,0-0.7,0.1-0.9,0.2l-0.6-0.1l-0.6,0c-0.1,0-0.2-0.1-0.3-0.2c-0.1-0.1-0.3,0-0.4,0.1    c-0.2-0.1-0.5-0.2-0.8-0.2c-0.2,0-0.3,0.1-0.5,0.2c-0.2,0-0.9,0-1.1,0c-1.7,0-2.3,0.1-2.3,0.1l0,0.8c-0.1,0.2-0.2,0.5-0.1,0.8    c0,0.1,0.1,0.2,0.1,0.3l0.2,1.2h0.1c0-0.1,0-0.2,0-0.3c0.2,0,0.5,0.1,0.7,0.2c0.1,0,0.2,0.1,0.3,0.1c0.1,0,0.3,0,0.4-0.1    c0,0,0,0.1,0,0.1c0.1,0,0.3,0,0.4,0c0.2,0,0.2-0.2,0.2-0.2s0,0.1,0,0.2c0.1,0,0.5,0,0.7,0c1.1,0.1,1.5,0.1,1.5,1.3    c0,0,0,2.9,0,3.4c-0.1,0.3-0.2,0.6-0.2,0.9c0,0.3,0,0.4,0.1,0.6c0.4,0.1,0.1,0.4,0,0.7c0,0.1,0,0.1,0,0.2c0,0.3,0.1,0.5,0.3,0.8    c0,0.4,0,3.1,0,4.1c0.1,0.1,0.2,0.2,0.1,0.2c0,0.1-0.1,0.1-0.1,0.1c0,0,0,0.1,0,0.1c0.1,0,0.2,0,0.1,0.2c0,0,0,0-0.1-0.1    c0,1.1,0,2.1,0,3.2c0.1,0,0.2,0.1,0.2,0.2c-0.1,0-0.1-0.1-0.2-0.1c0,0,0,0.1,0.1,0.1c0,0-0.1,0-0.1,0c0,0.3,0,0.7,0,1    c-0.1,0.4-0.1,0.7-0.2,1.1c-0.1,0.4,0,0.7,0.1,0.9c0,0-0.1,1.2-0.1,1.2c0,0.1-0.1,0.2-0.1,0.4c0.2,0,0.3,0,0.2,0.1    c0,0,0.3,0,0.3,0c0.3,0-0.1,0.1-0.3,0.2c-0.1,0.1-0.3,0.1-0.2,0.3c0,0-0.1,0-0.1,0.1c0,0,0,0.2,0,0.3c0.1,0.2,0.3,0.5,0,0.6    c0,0.3,0,0.6,0,0.9c0,0.1,0,0.4,0,0.5l0.3,0.1c-0.1,0.2-0.1,0.5-0.2,0.8c0,0.1-0.1,0.1-0.1,0.2c0,0-0.1,0.8-0.1,0.9    c-0.1,0-0.1-0.1-0.2,0c-0.2,0.1-0.3,0.3-0.3,0.5c-0.1,0-0.6,0-0.7,0l-0.9,0l-1,0.1c0,0,0,0.1-0.1,0c-0.1,0.1-0.2,0.1-0.3,0l-0.3,0    c0,0.2-0.2,1.3-0.2,1.3c0.1,0,0.1,0,0.1,0.1c-0.1,0-0.1,0-0.1,0.1l0.2,1.7c0,0,1.4,0,1.5,0c0,0,0.1,0.1,0.2,0.1    c0.1,0,0.2,0,0.3,0.1c0.1,0,0.3-0.1,0.5-0.1c0.8-0.1,7.4-0.2,7.9-0.2c0.1,0,0.1,0,0.2,0.1c0.1,0,0.3,0.1,0.4,0.1    c0.1,0,0.3,0.1,0.4,0.1c0,0,0.1,0,0.1,0c0,0,0,0.1,0,0.1c0.2-0.1,0.3,0,0.5,0c0.1,0,0.2-0.1,0.3-0.1c0.4,0,0.5,0.1,0.8,0.1    c0.3,0,0.7-0.1,0.9-0.2c0.2,0,0.8,0,1,0c0,0,0.7,0.2,0.7,0.2c0.1-0.1,0.2-0.1,0.2,0c0.2,0,0.3,0,0.4,0c0-0.1,0-0.1,0-0.2    c0.2,0.4,0.7-0.4,0.7-0.3c0.1,0,0.1,0.2,0.1,0.4c0,0,0.1,0,0.1,0c0-0.2-0.1-0.5,0.2-0.3c0,0-0.1,0.1-0.1,0.1c0,0,0.1,0.1,0.1,0.2    c0.6,0,3.4,0,3.5,0c0-0.3,0.1-0.5,0.3-0.5c0,0.1-0.1,0.1-0.1,0.2c0,0.1,0.1,0,0.1,0c0,0.1-0.1,0.2,0,0.3c0.2-0.4,0.3,0,0.6-0.2    c-0.1,0.1,0,0.2,0,0.2c0,0,0.6,0,0.6,0c0.5,0,1.4,0,1.4,0l0.7-0.1c0,0,0.1-0.1,0.1-0.2c0,0.1,0,0.1,0,0.1l0.9-0.1    c0.1-0.1,0.2-0.1,0.2-0.3c0,0.1,0,0.1,0.1,0.2c0-0.1,0.1-0.1,0.1-0.2c0-0.1,0.2-0.8,0.2-1c0.1-0.4,0.2-1.4,0.3-1.7    c0.2-0.3,0.5-1.7,0.5-2.1c0-0.3,0.4-3,0.4-3l0.3-1.3L421.5,106.9z"/>
            <path class="st0" d="M481.2,99.6c0-0.5,0-0.9,0-1.4l-0.1,0.1l0-0.1l0.1,0c0-0.2,0-0.3,0-0.5c0,0-0.1-0.1,0-0.2c0-0.1,0-0.2,0-0.3    c-0.4-0.3-0.2-1.4-0.9-1.2c0.2-0.4,0.2-0.1,0.6,0.3l0-0.1c-0.1-0.3-0.1-0.6-0.2-0.9c0,0-0.1,0-0.1-0.1c0,0,0-0.1,0.1-0.1    c-0.1-0.2-0.1-0.4-0.2-0.6c-0.1,0.1-0.2,0.2-0.3,0l0.2-0.3c-0.2-0.6-0.4-1.1-0.7-1.7c-0.1,0-0.2,0.1-0.2-0.1l0.2,0    c-0.1-0.2-0.2-0.6-0.2-0.6c-0.2-0.2-0.4-0.4-0.5-0.6c0.1,0,0.1-0.1,0.1-0.2c-0.1-0.2-0.2-0.3-0.3-0.5l-0.2-0.2c0.1,0,0.1,0,0.1,0    c-0.1-0.3-0.1-0.5-0.3-0.8c0,0,0,0.1,0,0.1c-0.1-0.1-0.3-0.4-0.4-0.6c-0.2-0.2-0.4-0.4-0.6-0.6c-0.4-0.5-0.8-1-1.2-1.5    c0,0-0.1,0-0.3-0.2c0-0.2-0.1-0.5-0.2-0.7c-0.2,0-0.1,0.4,0,0.4c-0.4-0.3-0.4-0.6-0.4-0.9c-0.1-0.1-0.4-0.3-0.6-0.4    c-0.1,0.1-0.2,0.2,0.1,0.5c-0.4-0.1-0.3-0.8-0.8-0.8l0.2,0c-0.2-0.2-0.3-0.3-0.6-0.4c-0.2-0.1-3.2-2.9-7-3.4l-0.7-0.1l-0.9-0.3    c-0.1,0-1.7-0.1-2.4-0.2l-0.3,0.4l-0.3,0.2l-0.4,0l-0.1-0.2v-0.2l0.1-0.1c-0.1,0-0.1,0-0.2-0.1c0.1,0,0.2-0.1,0.3,0    c0-0.1,0-0.2-0.1-0.3l-0.3-0.1l-0.1,0.1l-0.1-0.2l-0.2,0c0,0.1,0.1,0.2-0.1,0.2c0-0.1-0.1-0.1-0.1-0.2l-0.2,0.1    c0,0-1.2-0.2-1.3-0.2c0,0,0,0.1,0,0.1c0,0-0.1,0-0.1-0.1c-0.1,0-0.2,0-0.3,0l0,0.1c-0.5-0.1-0.8-0.1-1.2-0.2    c-0.8-0.1-2-0.1-2.2-0.1c-0.1,0-0.2,0.1-0.2,0.2c-0.1-0.1,0-0.1,0.1-0.2c-0.1,0-0.1,0-0.2,0c-0.3,0.2-0.6,0.1-0.8,0    c-0.7,0-1.5,0.1-2.2,0.2c-0.2,0-1.1,0-1.2,0c-0.5-0.1-0.9-0.1-1.4-0.2c-0.5,0-1,0.1-1.5,0.2c0,0-2,0-2.5,0c-0.8,0-6.4,0-6.4,0    l-2.6,0.2l0,1c0,0.2-0.1,0.3-0.1,0.5c-0.1,0.3,0,0.4,0.1,0.6c0,0.2,0.1,0.3,0.1,0.5c0,0.3,0.1,0.6,0.1,0.7c0.6,0.3,1.7,0,2.3,0.3    c0.1,0,0.2,0,0.3,0c0,0,0-0.1,0-0.1c0,0.1,0,0.1,0,0.1c0,0,0,0,0.1,0c0.1-0.1,0.1-0.3,0.2-0.3c0,0.1,0.1,0.2,0.1,0.3    c0.1,0,0.1,0,0.2,0c0-0.1,0-0.1,0-0.2c0.4,0,1.3,0.2,1.6,0.4c0.2,0,1.9-0.2,1.9-0.2c0,0,0,0.1,0.1,0.1c0.2,0.3,1.1,0.2,1.1,0.6    c0,0.1,0.1,3,0.1,3l0.1,0l-0.1,0.4l0,0.4l0.1,0l0,0.1c0,0-0.1,0-0.2-0.1c0.1,1.2,0,4.6,0,4.6c0,0.7-0.3,1.5-0.2,2.2    c0.1,0.5,0.1,1,0.1,1.6c0,0,0,0,0,0c0,0,0,0,0,0c0,0.1,0,0.2,0,0.3c0.1,0.2,0.3,0.3,0.3,0.3c0,0.1-0.1,0.1-0.2,0.1    c0,0,0,0.1,0,0.1c0.2,0,0.3,0,0.1,0.2c0,0-0.1-0.1-0.1-0.1c0,0.1,0,0.6,0,0.8c-0.1,0.3-0.3,1.2-0.3,1.3c0,0.2,0.1,0.5,0.2,0.7    c0,0.1,0,0.1,0.1,0.1c0,0.1,0,0.2,0,0.3c0.1,0,0.1,0.1,0.1,0.2c-0.1,0-0.1-0.1-0.1-0.1c0,0.3,0,0.5,0,0.8c0,0.1-0.1,0.2-0.1,0.3    c-0.1,0.4,0.1,1.1,0.1,1.1c0,0.4-0.1,1.9-0.1,2.3l0.2,0c0.2,0,0,0.1-0.2,0.2c-0.1,0.3-0.2,0.5-0.2,0.8c0.1,0.1,0.2,0.3,0,0.4    c0,0.1,0.1,0.2,0.1,0.3c0,0.1,0,0.3,0,0.4c0.1,0.1,0.2,0.1,0.2,0.2l0.6-0.1l1.3-0.5l1.1-0.1l-0.1,1.1l-0.6,0.5l-0.6,0.1l-0.5,0.5    l-1,0.2l-0.5,0c0,0.1,0.1,0.2,0.1,0.2c0,0,0,0,0.1,0c0.2,0.1,0.1,0.2,0,0.3c0,0-0.1,0.4-0.1,0.6c0,0.1,0.1,0.2,0.1,0.2    s-0.1,0-0.1,0c0,0,0.5,0.7,0.1,0.8l0,0.2c0-0.1-0.1-0.1-0.1-0.1c0,0.1,0,0.1,0,0.2c0.1,0,0.6,0.3,0,0.1c0,0.1,0,0.2,0,0.3    c0,0,0.1,0,0.2,0c0,0.1,0,0.1,0,0.1c-0.1,0.2,0,0.1,0.2,0.1c-0.2,0.1-0.2,0.1-0.3,0.2c0,0.2,0,0.4,0,0.6c0,0,0.1,0,0.1,0    c-0.1,0-0.1,0-0.1,0c0,0.1-0.1,2.3-0.1,2.3c0,0.3,0,0.5,0,0.6l-0.3,0.3c0,0-1.6,0.3-2.1,0.1l-0.8,0.1c0,0.1,0,0.1,0,0.2    c0-0.1-0.1-0.1-0.1-0.2l0,0c0,0-0.3,0-0.3,0c0.1,0.1-0.1,0,0,0c-0.1,0-0.5,0-0.5,0l-0.9,0.1l0,3l0.4,0.8c0,0,1.7,0,3-0.1    c0.4,0.1,0.7,0.3,1.2,0.2c0.3,0,3.5-0.2,3.5-0.2l5,0.1l1.4,0.1l0.8,0l0.8,0.1l0.7-0.2c0.3,0.1,0.9,0.2,1.5,0.2    c0.6,0,1.4-0.1,2-0.1c0.5,0,0.9-0.1,1.1-0.1c0.4,0,0.7,0,0.9-0.1c0.2,0,0.4-0.1,0.8-0.1c0.2,0,0.4,0,0.6-0.1    c0.2,0,0.6-0.1,0.6-0.1c0.5-0.1,0.9-0.3,1.3-0.3c0.4,0,0.7,0,0.8-0.1c0.3-0.1,0.6-0.3,0.9-0.4c0.2-0.1,0.4-0.1,0.6-0.2l0.1,0    c0,0,0,0,0,0c0-0.1,0.1-0.1,0.3,0l0.5-0.1l1.7-0.9c0.1-0.1,0.1-0.2,0-0.3l0.9-0.3c-0.1,0-0.2,0.1-0.2,0.2l1.2-0.6    c0-0.1,0-0.1,0.2-0.1c0,0,0,0,0,0l0.1-0.1l0.6-0.7l0.9-0.3l0.7-0.8l0.9-0.5l0.5-0.9c0.7-0.4,1.2-1.2,1.6-2.1    c0.5-0.5,0.9-1,1.4-1.8c0.4-0.6,0.9-1.2,1.2-1.9c0.6-1,0.7-2.3,0.7-3.4c0.1-0.4,0.1-0.8,0.2-1.2c-0.2,0.1-0.3,0.2-0.2-0.1    c0.1,0,0.2,0,0.2-0.1c0-0.2,0.1-0.7,0.1-0.7c0-0.1-0.1-0.1-0.1-0.2l0.1,0c0-0.4,0.1-0.8,0.2-1.2c-0.2,0.1-0.5,0.4-0.7,0.5    c0.3-0.4,0.2-0.7,0.6-1l0.1,0.3c0-0.1,0-0.2,0-0.2L481.2,99.6z M444.7,113c0,0,0.1-0.1,0.1-0.1l0.1,0.2    C444.9,113,444.8,113,444.7,113z M452.1,103.4c-0.1-0.1-0.1-0.2-0.1-0.2C452.5,103.1,452.1,103.2,452.1,103.4z M472.3,102    c-0.2,0.9,0,1.8-0.1,2.7c-0.1,0.2-0.1,0.4-0.2,0.5c-0.1,0.4-0.2,0.8-0.4,1.2c-0.4,1.5-1.2,2.9-2.2,4.1c-0.1,0.1-0.3,0.1-0.4,0.2    c-0.3,0.2-0.4,0.5-0.6,0.8c0,0.1-0.1,0.1-0.1,0.2c-0.6,0.7-2.3,2.4-2.5,2.6l-4.2,1.8l-0.4,0.1c0,0,0,0,0,0c-0.1,0-0.1,0-0.1,0    c0,0-1.9,0.3-3.3,0.4c0,0.1,0,0.1,0,0.2c0,0.2-0.1-0.1-0.2-0.2c-0.2,0-0.9,0.1-1.1,0.1c-0.1,0.1-0.2,0.2-0.2,0.4l-0.5-0.2    c0.1,0,0.2-0.1,0.2-0.2c-0.3,0-0.8,0-0.8,0c0,0.1-0.1,0.2-0.3,0.1c0-0.1,0-0.1,0-0.1c-1.1,0-1.9-0.2-2.1-0.2l-0.5-0.2    c0-0.2-0.1-0.8-0.1-1.4c0.1-0.2,0.1-0.4,0.2-0.6c0-0.6-0.1-1-0.2-1.6c-0.1-0.6,0.2-1.6,0.2-2.1c0-0.8-0.2-1.5-0.2-2.3    c0,0,0-0.1,0-0.1c0-0.2,0-0.5,0-0.8c-0.1,0-0.1,0-0.1-0.1c0,0,0.1,0,0.1,0c0-0.2,0-0.4,0-0.7c0,0,0,0.1-0.1,0.1l-0.1,0    c0,0,0.2,0,0.2-0.4c-0.2,0.1-0.3,0.1-0.4,0.1c0.2-0.1,0.2-0.3,0.4-0.4c0,0,0.1-2,0.1-2.5c-0.1-0.1-0.2-0.1-0.4-0.1    c0.2-0.1,0.2-0.1,0.4,0.1c0,0,0,0,0,0l0-0.7c0,0,0,0-0.1-0.1l0.1,0l0-0.9c0,0,0-0.1,0-0.1c-0.1,0-0.2,0-0.2-0.1l0.2,0.1    c0-0.1,0.1-0.2,0.1-0.3c-0.1-0.2-0.3-0.3-0.2-0.5c0.1,0,0.3-0.1,0.4-0.1l-0.3-0.4c0.1,0.1,0.2,0.1,0.3,0.1c0-0.2,0-0.4,0-0.5l0,0    c0,0-0.1,0.1-0.1,0.1c0-0.1-0.1-0.2,0-0.4c0-0.1-0.1-0.2-0.1-0.4l0-1.1c0,0,0-0.1-0.1-0.1c0,0,0,0,0.1-0.1l0-0.2    c0,0-0.1,0.1-0.1,0.1c-0.1-0.1,0-0.2,0.1-0.3l0-0.5c0,0,0,0.1,0,0.2c-0.1-0.1,0-0.1,0-0.2l0-1.5c0-0.8,0-1.7,0-2.5c0,0,0,0,0,0    c0.1-0.5,0.2-1,0.2-1.6c-0.1-0.4,0-1-0.2-1.4l-0.1,0.2c0-0.2-0.2-0.3,0-0.5c0,0,0.1,0.1,0.1,0.1c0.1,0,0.1,0,0.2-0.1    c0-0.1,0-0.3-0.1-0.3c-0.1,0-0.1,0-0.1-0.1c0.1,0,0.1,0,0.1,0c-0.1-0.3-0.1-0.6-0.2-0.9c0-0.9,0.1-1.9,0.2-2.8    c0.1-0.2,0.1-0.4,0.1-0.5c0.1-0.5,0.1-0.6,0.5-0.9c0.1-0.1,0.3-0.2,0.4-0.3c0.1,0,0.3,0,0.4,0c0.1,0,0.1-0.1,0.2-0.1    c0.2-0.1,0.4-0.1,0.7-0.2c0,0,0.7,0,1,0c0.4,0,0.8,0.1,1.2,0.2c0.4,0.1,0.9,0.2,1.4,0.2c1.9,0,2.7,0.2,3.3,0.4    c0.4,0.1,0.8,0.2,1.2,0.2c0.1,0,0.2,0,0.3,0.1c0.2,0.1,0.4,0.1,0.6,0.1l1.1,0.3l1,0.6c0.3,0.3,0.7,0.5,1.1,0.8    c0.3,0.2,0.6,0.3,0.8,0.5c0.1,0.1,0.1,0.3,0.2,0.3c0.2,0.2,0.4,0.4,0.6,0.6c0.1,0.2,0.3,0.3,0.5,0.4c0,0,0.1,0,0.2,0.1    c1,1.1,1.7,2.2,2,4l0.2,1.2l0.4,0.7l-0.1,0.9l0.3,1.2l0.1,1.4c0.3,0.7,0.3,1.7,0.4,2.7C472.5,101.2,472.4,101.6,472.3,102z     M480,95c0.4-0.2,0,0.1,0.2,0.4C480.1,95.2,480,95.1,480,95z M480.9,102c0,0.1,0,0.2-0.1,0.3l-0.1,0L480.9,102z"/>
            <path class="st0" d="M270.7,84.1l-0.8,0c-0.1,0.2,0.2,0.5,0,0.5c0-0.2,0-0.3-0.1-0.5l-0.2,0c0,0.1-0.1,0.3-0.2,0.3l0-0.3    c0,0-0.5,0-0.5,0c0,0.2,0.2,0.6,0.2,0.7c-0.2-0.3-0.3-0.1-0.4-0.6l0.1-0.1c0,0-0.1,0-0.3,0c-0.1,0.1-0.1,0.2-0.2,0    c-0.3,0-1.2,0-1.6,0l0,0.3l0,0l0-0.3c0,0-0.1,0-0.2,0c-0.1,0.2-0.1,0.3-0.2,0.1c0,0,0,0,0.1,0l-0.1-0.1c0,0-0.6,0-0.6,0    c-0.1,0.6-0.7,0-0.7,0.8c-0.2-0.3,0-0.2,0.2-0.6l-0.2-0.2l-0.2,0c-0.1,0.1-0.1,0.2-0.2,0.2c0,0,0-0.1,0-0.2l-0.3,0    c0,0.2,0.1,0.3,0,0.4l-0.1-0.4l-0.1,0c-0.1,0.1-0.2,0.1-0.3,0c0,0-0.3,0-0.3,0c0,0,0,0.3-0.1,0.3l0-0.3c0,0-0.1,0-0.1,0    c-0.2,0.1-0.4,0.4-0.5,0.3c0-0.1,0-0.2-0.1-0.3l-0.2,0l-0.2,0.2c0,0,0.1-0.1,0.1-0.2l-0.1,0c-0.2,0-0.4,0-0.5,0.1    c-0.1,0.1-0.1,0.3,0,0.6c0,0.2,0.1,0.4,0.1,0.6c0,0.5,0.1,1.4,0.4,1.4c0.2,0,0.5,0,0.9,0.1c0.5,0,1.7,0.1,2.3,0.2    c0,0.3,0.1,1,0.1,1c-0.1,0.5-0.4,0.9-0.5,1.4c-0.1,0.4-0.2,1.8-0.3,2.3c-0.3,0.3-0.5,0.7-0.6,1.2c0,0.4-0.2,0.9-0.3,1.3    c-0.1,0.2-0.6,1.7-0.7,2.1c0,0.2-0.1,0.3-0.1,0.5l-0.7,1.9l-0.5,1.6l-0.7,1.5l-0.6,1.4c-0.1,0-0.2,0-0.3,0.2    c-0.1,0.5-0.6,1.2-0.5,1.8l-0.7,1.8c-0.1,0-0.2-0.1-0.3-0.1c0-0.1,0-0.1-0.1-0.2c0-0.1,0-0.1,0-0.2c-0.1-0.3-0.2-0.7-0.8-2    c0,0-0.2-0.7-0.1-1c0-0.2,0-0.3,0-0.4c-0.1-0.4-0.3-0.8-0.5-1.1c0,0-1.8-5.8-1.8-5.8l-0.1-0.7l-1.2-3.7l-0.1-1l-0.8-3    c0.1-0.4,0.4-0.4,0.8-0.5c0.2-0.1,0.4-0.1,0.6-0.2c0,0,1.4,0.1,2.4,0c0,0,0.1-1.6,0-2.8c0,0-3.9-0.2-3.9-0.2c-0.2,0.1-0.9,0-2.3,0    l-0.6-0.6l-0.3-2.5c-0.2,0,0.1-0.4-0.3-0.6c-0.3-0.3,0.2-0.6,0.2-0.6c0.1-0.2,0-1.6,0-1.8c0.1-2,0.1-3.3,0.5-4.7    c0,0.1,0.1,0.1,0.1,0.1c-0.2-0.3,0.6-1,0.6-1l0-0.2l3.8-3.8c0,0-0.1-0.1-0.2-0.1c0.5,0.1,0.2-0.9,0.4-0.8c0.1-0.1,0.3,0.1,0.4,0.2    l0.1-0.1c-0.1-0.2-0.6-0.4-0.1-0.4c0,0.1,0,0.2,0,0.2c0,0,0.1,0,0.3,0.1l3.3-3.1c0-0.4,0.5-0.7,0.5-0.5l0.6-0.3    c0.3-0.3,1-0.8,1-0.8c0,0-0.2-0.3,0.8-0.6c0.8-0.6,1.6-1.2,1.6-1.2l-0.1-0.2c-0.1,0.1-0.1-0.1-0.1-0.1l-2-2l0,0.1    c-0.1,0.2-0.1,0-0.1-0.2l-0.3-0.3l-0.2,0.2c-0.2-0.3-1.1-0.5-0.8-1.2c-0.3,0.1-0.3-0.4-0.5-0.5l0.1-0.1c0,0-0.4-0.4-0.4-0.4    c-0.2,0-0.3-0.1-0.3-0.3c0,0-1.2-1.2-1.2-1.2l0,0c0,0-0.3,0-0.3-0.1c-0.2,0-0.3-0.2-0.4-0.5l-0.2-0.2c0.1,0,0.1,0,0.1,0l-0.1-0.1    c-0.1,0.1-0.5,0.1-0.3,0c0,0.1,0.1-0.1,0.2-0.1l-0.4-0.4c0,0,0,0.1,0,0.1c0,0-0.1,0-0.1,0c0,0,0,0,0,0.1c-0.1,0-0.1-0.1,0-0.1    c-0.1-0.2-0.2-0.1-0.2,0c0.1-0.3,0-0.4-0.1-0.6l-0.4-0.4c-0.1-0.1-0.2-0.2-0.3,0.1c0.1-0.4,0-0.2,0-0.4l-0.6-0.6    c0,0-0.2,0.1-0.4,0.1c0-0.2,0-0.4,0-0.5l-0.5-0.2c0,0,0,0.2,0,0.3c-0.1,0,0-0.1,0-0.2c0-0.1,0-0.2-0.1-0.3    c-0.1-0.1-0.2-0.1-0.4-0.1c-0.1-0.1,0-0.2,0.1-0.2l-0.2-0.2l-0.2,0c0,0,0-0.1,0-0.1c0.1,0,0.1,0,0.2,0.1c0,0-2.2-2.2-2.2-2.2    c-0.1,0-0.1,0.2,0,0.3c-0.2-0.2-0.2-0.3,0-0.4l-0.7-0.7l-1.1-1.6l-0.9,1.2l0.1,0.2l-0.2-0.1l-0.9,0.9c0,0-0.8,0.6-1.2,1    c-0.4,0.4-0.7,0.8-1.1,1.2c-0.6,0.6-1.3,1.1-1.7,1.8l-2.8,2.7l0.2,0.1l-0.2,0.1c0.1,0.2,0.3,0.3,0.2,0.6c-0.1,0.3-0.3,0.7-0.3,0.7    l-0.3-0.7l-0.1,0.1c-0.1,0,0-0.1-0.1-0.3l-3,3c0,0-0.2,0.3-0.5,0.7c-0.5,0.3-0.3,0.2-0.8,0.7c-0.1,0.1-0.7,0.8-0.7,0.8l-0.4,0.5    l0.8,0.6c0.5,0.3,0.7,0.6,0.8,0.8c0,0,0.4,0.2,0.4,0.4c0.1,0.1,0.5,0.1,0.5,0.2c0,0,0.9,0.8,1.2,0.9c0.1,0.1,0.6,0.6,0.8,0.6    l1.4,1.2c0-0.1,0.1-0.1,0.2,0c0,0,0,0.1-0.1,0.1l1,0.8c0.1-0.2,0.1-0.4,0.2-0.5c0,0.3,0.1,0.4,0,0.7l2.2,2.2    c0.1,0.1,0.3,0.1,0.6-0.1c-0.1,0.3-0.1,0.2-0.4,0.2l0.7,0.7c0,0,0.1,0,0.1,0l0,0.1l0.9,0.9c0,0,0.1,0,0.1,0l-0.1,0l1.4,1.4    l0.1,0.8c0.1,0,0.4,0.9,0.3,0.9c0.2,1.6,0.3,1.8,0.3,1.8s0.1,1.5,0.1,1.5l0.1,2.6c0,0-0.2,3.9-0.2,3.9l-0.2,0.5    c-0.5,0-0.7,0-0.9,0c-0.5,0-3.7,0.1-3.7,0.1l0,0.2l-0.3,0.2l-0.2,0l0.1,2.5l0.1,0c0.1,0.1,1.6,0.1,1.6,0.1c0,0,0,0,0,0.1    c0.1,0.1,0.3,0.1,0.4,0c0,0,0.2,0,0.2,0c1.3,0,1.8,1.8,2.4,4.4l0.1,0.3c0,0.1,0,0.2-0.1,0.3c-0.1,0.5-0.4,1-0.5,1.6    c0,0,0,0.1,0,0.1c-0.4,1-1.5,3.1-1.6,3.6c0,0.1,0,0.2,0.1,0.3l-0.1,0.2c0,0-1.4,2.1-1.4,2.3c-0.1,0.2-0.1,0.4-0.1,0.6l-0.7,1.5    l-0.1,0.5l-1.1,2c0,0.1-0.7,1.4-1.1,2.3c0,0-0.2,0-0.3,0c-0.5-1.3-0.8-2.3-1.1-3.2c0.1-0.1,0.1-0.1,0.1-0.3    c-0.1-0.4-0.3-0.7-0.5-1.1l-1.2-3.8l-0.4-1.4c0.1-0.4-0.2-1.2-0.5-2.1c-0.4-1.1-0.9-2.3-0.8-3.3l-0.2-1l-0.3-0.7    c-0.1-0.3-0.1-0.6-0.1-0.8c-0.1-0.5-0.1-1-0.4-1.6l0-0.7c1.1-0.4,3.2-0.3,3.2-0.3l0.1,0l0-0.1c0,0,0.1-0.6,0.1-1    c0-0.6-0.1-1.6-0.1-1.7l0-0.1l-0.5,0c0,0.1,0.1,0.2,0,0.3l-0.1-0.3l-0.9,0c0,0,0,0.3-0.1,0.3c0,0,0.1-0.3,0-0.3l-0.1,0    c-0.2,0.1-0.4,0.4-0.6,0.3c0-0.1-0.1-0.2-0.1-0.3l-0.1,0l-0.2,0.2c0,0,0-0.1,0-0.2l-0.6,0l-0.9-0.1c-0.3,0-4.6,0.1-6,0.1l-0.9,0.2    l-1.3-0.1l-1.8,0.1l0,0.1c-0.1,1.2,0.2,2.7,0.3,2.7l0,0.1c0,0,2,0,2,0c0.3,0.3,0.7,0.2,1,0.3c0.1,0,0.2,0,0.2,0    c0.1,0.1,0.3,0.2,0.3,0.3c0,0.1,0.3,0.7,0.3,0.7c0,0.1,0,0.3,0,0.4c0,0,0.1,0,0.2-0.1c-0.1,0.1-0.1,0.2-0.2,0.3    c0,0.1,0,0.2,0.1,0.3c0.1,0.3,0.3,0.5,0.4,0.8c0.2,0.6,0.7,2.1,0.7,2.2c0,0.6,1.1,3.4,1.3,4l0.5,2l0.4,0.7l0.1,0.6l0.4,0.5    c0,0,1.8,6.5,2.2,7.6l0.2-0.1c0.2-0.1,0,0.1-0.2,0.2c0.2,0.5,0.4,1,0.6,1.4c0,0,0.1,0.3,0.1,0.3l0.1,0c0,0.2,0.4,0.4,0.1,0.6    l1.8,5.7c0.1,0,0.1,0,0.2,0c-0.1,0-0.1,0.1-0.2,0.1l0.2,0.6c0,0,0.9,0.1,1.2,0.1c0.5,0,1.2-0.2,1.2-0.2l0.8-1.2c0,0,2.4-5,2.6-5.6    c0.1-0.1,0.1-0.2,0-0.3l0-0.1c0-0.1,0.1-0.6,0-0.7c-0.3-0.4-0.5-1.3-0.4-1.3l0-0.8c0.3,0,0.6,0.6,0.6,0.6l0.6,0.5    c0.2-0.3,0.4-0.6,0.6-0.9c0.2-0.3,0.5-1.1,0.5-1.2l1.1-2.3c0,0,0.6-1.6,1.4-3.5c0.5-1.2,1.3-2.5,1.7-3.3c0.1,0.1,0.1,0.2,0.2,0.3    l0.1,0.4c0,0.3,0.1,0.7,0.2,1c0,0.1,0.1,0.1,0.2,0.2l0,0.1c0,0.4,0,0.8,0.1,1.1c0.1,0.5,0.3,1,0.6,1.5c0,0.1,0.1,0.1,0.2,0.1    l0.2,0.5c0.1,0.3,0.1,0.5,0.1,0.8c0.1,0.5,0.5,1.5,0.6,1.5c0,0.6,0.1,1.2,0.3,1.7c0.2,0.6,0.9,3,1.3,3.3l0.4,1.5    c0.9,2.1,0.8,2.4,0.9,2.7c0.1,0.6,0.6,1.1,0.8,1.7c0,0.1,0.1,0.2,0.2,0.2l0.6,1.7l0.7,0.1l1.5-0.1l0.3-0.7c0-0.1-0.3-0.2-0.3-0.2    l0.4,0l0-0.1c-0.1,0-0.2-0.1-0.2-0.1c0-0.4,0.6-0.5,0.5-0.9c0.1,0,0.1,0,0.2,0l0-0.1c-0.1-0.1,0.1-0.3,0.2-0.4l0.6-1.6l-0.3,0    c0,0,0.1-0.2,0.2-0.2c0,0,0.1,0,0.3,0l0-0.1c0-0.1-0.1-0.1-0.2-0.2l0-0.1c0-0.1,0.1,0.2,0.3,0.2l0-0.1c-0.1-0.1-0.3-0.3-0.1-0.2    c0,0.1,0,0.1,0.1,0.1l0.1-0.2l-0.2-0.1c0.1-0.3,0.4-0.5,0.5-0.8l0.4-1.1c-0.7-0.4,0.4-0.4,0.2-0.8c0,0,0.1,0,0.1,0    c0-0.1,0-0.2,0.1-0.3l1.1-3c0-0.2-0.3-0.4-0.2-0.4c0.1-0.1,0.2,0,0.3,0.1l0-0.1c-0.2-0.1-0.4-0.1-0.1-0.2c0,0,0,0.1,0.1,0.1    c0,0,0,0,0.1,0l0.8-2.4c-0.1-0.1-0.1-0.1-0.1-0.2c0,0,0.1,0.1,0.1,0.1l1.2-2.8c0,0,0-0.2,0.1-0.5l-0.1,0c-0.2-0.1,0-0.1,0.2,0    c0.1-0.4,0.3-1,0.7-1.3l0.1-0.2c0-0.1,0-0.1,0-0.2l-0.2-0.1l-0.6-0.1l0-0.6c0,0,0.4-0.2,1.1-0.1c0.1,0,0.2,0,0.2,0    c0,0,0.1-0.2,0.1-0.2c-0.1-0.1,0.1-0.2,0.1-0.2l1.4-3c0-0.1,0-0.2,0.1-0.2c0-0.1,0-0.1-0.1-0.2c0-0.1,0.1,0,0.2,0c0,0,0-0.2,0-0.2    c0,0,0,0.1,0,0.1c0-0.1,0.2-0.5,0.2-0.6l-0.1-0.1c-0.1,0-0.3-0.1-0.3-0.1c0.1,0,0.2,0,0.3,0l0.1,0.1c0,0,0.1,0,0.1,0.1    c0.1-0.2,0.5-1.5,1-2.3c0-0.1,0.1-0.1,0-0.2c0,0-0.2-0.1-0.2-0.1c0,0,0.2,0.1,0.2,0.1c0.2-0.2,0.4-0.4,0.6-0.7    c0.2-0.4,0.3-0.7,0.6-1.1c0.2-0.2,0.5-0.5,0.7-0.7l2.2-0.2h0.8c0.3,0,0.5-0.2,0.6-0.7c0.1-0.3,0.1-0.7,0.1-1.1l0.1-1.2    c0,0-3.1,0-3.4,0C271.2,84.1,271.4,84.1,270.7,84.1z M264.6,84.7c0-0.4,0.1,0,0.2,0C264.8,84.7,264.7,84.7,264.6,84.7z     M259.8,61.2c0.2-0.2,0.1,0,0,0.2c0,0-0.1-0.1-0.1-0.1L259.8,61.2z M238,62.5c0-0.1,0-0.1,0.1-0.1L238,62.5z M238.3,62.1    C238.3,62.1,238.3,62,238.3,62.1c-0.1-0.1,0.1-0.1,0.1-0.1L238.3,62.1z M239.5,61c0,0,0-0.1,0-0.1c0.1,0,0.2-0.1,0.3-0.1L239.5,61    z M238.4,84.5c0,0-0.2,0.1-0.2,0.1C238.2,84.1,238.4,84.5,238.4,84.5z M228.5,88.4L228.5,88.4l0.1-0.1L228.5,88.4z M236.9,114.7    c0.1-0.1,0.1-0.2,0-0.2c0.1,0,0.3,0,0.4,0.1C237.2,114.6,237.1,114.7,236.9,114.7z M255.6,52.5c0,0.1,0,0.2,0.1,0.2l-0.2-0.1    C255.6,52.7,255.6,52.6,255.6,52.5z M255,52l-0.2,0l0.2-0.2L255,52z M254.6,51.5l0.2,0l-0.5,0.2L254.6,51.5z M252.6,49.5    L252.6,49.5L252.6,49.5l-0.1,0.3C252.5,49.7,252.6,49.5,252.6,49.5z M251.9,49.1l0.2,0c0.1-0.1,0.2-0.1,0.3,0l-0.3,0    c-0.1,0.1-0.1,0.3-0.2,0.3C252,49.4,251.9,49.2,251.9,49.1z M250.5,48C250.6,47.9,250.6,47.9,250.5,48c0.3,0.1,0.2-0.1,0.1,0.1    C250.6,48,250.6,48,250.5,48C250.5,48.2,250.4,47.9,250.5,48z M248.5,47.1l-0.2,0l0-0.1L248.5,47.1z M241.5,66.1    c0-0.1-0.1-0.1,0-0.2l0.1-0.1L241.5,66.1z M242,61c0,0,0.1-0.1,0.1-0.1C242.2,60.9,242.1,61,242,61z M243.7,62.7    C243.7,62.7,243.6,62.6,243.7,62.7C243.6,62.7,243.6,62.6,243.7,62.7c-0.1-0.1-0.1-0.1-0.1-0.1C243.8,62.7,243.7,62.6,243.7,62.7z     M243.8,63c0.1,0,0-0.1,0-0.1l0.1,0C244,63,244,63.1,243.8,63z M244.8,69c0.1,0.1,0.2,0.1,0.2,0.2C244.7,69.5,245,69.1,244.8,69z     M245,64.3c0.1,0,0-0.1,0.1-0.2c0,0.1,0.1,0.2,0.2,0.2C245.2,64.4,245,64.4,245,64.3z M244.6,63.4L244.6,63.4    c-0.1,0-0.1,0.1-0.1,0.2c0-0.1,0-0.1,0-0.2L244.6,63.4C244.6,63.4,244.6,63.4,244.6,63.4c0,0-2.9-3-2.9-3    c-0.3-0.4-0.2-0.4-0.1-0.9c0-0.1,0.1-0.3,0.1-0.4l0.2-0.2c0.1-0.1,0.2-0.2,0.1-0.3l0.2-0.1l0.1-0.1c0,0-0.1-0.1-0.1-0.1    c0.1-0.1,0.1-0.1-0.1-0.1c0.5-0.1,0.8-0.4,1-0.6c0,0,0.5-0.5,0.7-0.7l0.4-0.3c0,0,0,0-0.1,0c0.3,0,0-0.2,0.1-0.3l0.3,0l0.1-0.1    c0,0-0.1-0.1-0.1-0.1c0.3-0.3,0.8-0.4,0.9-0.8c0,0,0.1,0,0.1,0c0,0,0.3-0.3,0.2-0.4c0.1,0,0.2,0,0.3,0l1.6-1.5l-0.2-0.1    c0,0,0.3-0.2,0.3-0.2c0,0,0.1,0.1,0.2,0l0.1-0.1c0-0.1,0-0.3,0-0.3l0.1-0.2c0.1-0.1-0.1,0.3,0,0.3l0.1-0.1c0-0.1,0.1-0.3,0.2-0.3    c-0.1,0.1-0.1,0.2-0.1,0.2l0.2-0.2c0,0-0.1-0.1-0.1-0.1c0,0,0.1-0.1,0.1-0.1c0.1,0,1.3,0.3,1.4,0.2c0.2,0.2,1.1,1.1,1.1,1.1    c0.5-0.3,0.5,0.5,0.9,0.7c0,0-0.1,0-0.1,0c0.2,0.1,0.4,0.3,0.4,0.5l2.7,2.5c0,0,0-0.1,0-0.1c0,0.3,0.6,0.2,0.6,0.4    c0.1,0.1,0,0.1-0.1,0.2l0.1,0.1c0.1-0.1,0.2-0.3,0.2,0c0,0-0.1,0-0.1,0c0,0,0,0.1,0,0.1l1.4,1.3c0,0.2,0.1,0.5,0,0.6    c-0.1,0.1-0.1,0.5-0.1,0.5l-0.8,0.8c0,0.1,0,0.2-0.1,0.3c0-0.1,0-0.1,0-0.1c-0.1,0-1.4,1.8-1.4,1.8c0,0-1.8,1.5-1.8,1.5    c0,0,0.1,0.1,0.1,0.1c0.1,0.1-0.1,0-0.3,0c0,0,0,0,0,0l-1.3,1.2c-0.1,0.2-0.2,0.4-0.3,0.5l0.1,0.1c-0.1,0.1-0.1,0.2-0.3,0.4    c-0.2,0.2-0.4,0.4-0.6,0.4c0,0.1-0.1,0.1-0.1,0.2c-0.1,0-0.2,0-0.3,0c-0.1,0-1.1,0-1.4-0.2c-0.1,0-0.2-0.1-0.2-0.1L244.6,63.4z     M267.6,93c-0.1-0.1-0.2-0.2-0.2-0.3c0.1,0.1,0.2,0,0.4,0.1C267.6,92.9,267.6,92.9,267.6,93z M268.4,92.6c-0.2,0.1-0.3,0-0.3,0    C268.2,92.6,268.3,92.6,268.4,92.6z M268.2,91.6c0.1,0.1,0.1,0,0.2,0l0.1,0.1C268.3,91.7,268.2,91.7,268.2,91.6z M268.5,91.4    C268.5,91.4,268.5,91.4,268.5,91.4C268.4,91.4,268.6,91.3,268.5,91.4C268.6,91.4,268.6,91.4,268.5,91.4    C268.6,91.6,268.7,91.5,268.5,91.4z M269.4,84.7l-0.1-0.2C269.3,84.5,269.4,84.5,269.4,84.7L269.4,84.7z"/>
            <path class="st0" d="M326.8,100.1c0-0.1,0-0.3,0-0.3l-0.3-0.6c0.1-0.3,0.1-0.6,0.1-0.8c0-0.3-0.1-0.8-0.3-1.4    c-0.1,0.1-0.1,0.2-0.3-0.1c0.1-0.1,0.1-0.2,0.1-0.3c0-0.1,0-0.1-0.1-0.2c-0.1,0-0.2,0.2-0.1,0.3c-0.1-0.2-0.1-0.4,0-0.5    c-0.1-0.2-0.1-0.3-0.2-0.5c-0.1,0-0.2,0.1-0.1,0.3c-0.2-0.2,0.2-0.6-0.2-0.7l0.1,0c-0.1-0.3-1-2.6-1-2.6s-0.9-1.1-1.3-1.6    c-0.7-0.9-1.3-1.7-2.2-2.5c0,0.1,0,0.1,0.1,0.2c0-0.1-0.5-0.1-0.5-0.4c0,0,0.2,0,0.2,0c-0.1-0.1-0.9-0.8-1.2-1    c-0.4-0.3-1.1-0.8-1.1-0.8c-0.1-0.3-0.3-0.4-0.5-0.6c0,0-0.1,0-0.1,0.1c0-0.1,0-0.1,0.1-0.1c0,0-0.1-0.1-0.1-0.1    c-0.2,0.1-0.3-0.1-0.4-0.2c-0.2-0.1-0.4-0.1-0.6-0.1c-0.1,0-0.1,0-0.2,0.1c-1.5-0.7-2.8-1-4.7-1.4c-0.9-0.2-1.3-0.2-2.2-0.2l0,0.1    c-0.2,0-0.5,0-0.7,0.1c0,0.1,0,0.2-0.1,0.3c0,0-0.3,0-0.4,0.1c-0.1,0-0.1,0-0.2,0c0,0-0.3,0.1-0.3,0.1c-0.2,0.2-0.3,0.3-0.5,0.5    c0.1,0.8,0.1,1,1.3,1.5c0.3,0,0.7,0,1,0.1l0.7,0c0.1,0,0.2,0.1,0.2,0.1c0,0,0,0,0.1-0.1l0,0.1l0.3,0.1c0,0,0.1,0,0.2-0.1    c0,0,0,0,0,0c0,0.1,0,0.1,0.1,0.2c0,0,0.7,0.2,0.7,0.2c0.5,0.3,0.9,0.5,1.3,0.8c0,0,0.2,0.3,0.2,0.3c0.2,0.1,0.3,0.3,0.5,0.5    c0.1,0.1,0.2,0.1,0.3,0.2c0,0,0.1,0.1,0.2,0c0,0,0,0,0,0.1c0.1,0.1,0.2,0.1,0.3,0.2c0,0,0.1,0,0.1-0.1c0,0.1,0,0.1-0.1,0.1    c0,0,0,0,0,0c0.1,0.1,0.3,0.1,0.5,0.2c0.7,0.6,1.5,1.6,1.6,1.9c0.6,1.1,1.5,2.7,1.7,3.4c0.1,0.5,0.3,1,0.3,1    c0.2,0.5,0.4,1.1,0.5,1.9l0.1,0.7c0,0.3,0,0.6,0,0.8c0.1,0.1,0.3,0.2,0.2,0.2c0,0.1-0.1,0.1-0.2,0.1c0,0,0,0.1,0,0.1    c0.2,0,0.3,0,0.1,0.2c0,0-0.1-0.1-0.1-0.1c0,0.1,0.1,1.1,0.1,1.4c0,0.5-0.2,1.6-0.3,1.7c0.1,0.1,0.2,0.1,0.1,0.2    c-0.1,0-0.1-0.1-0.2-0.1c0,0-0.2,0.8-0.2,1.2l-0.2,0.9l-0.4,1.2c-0.1,0.3-0.1,0.5-0.2,0.8l0.1,0c0.2,0.1,0,0.1-0.2,0.1    c-0.1,0.3-0.3,0.8-0.3,0.8c-0.2,0.3-0.4,0.5-0.6,0.8c0,0.1,0,0.3-0.1,0.4l0.3,0.1c-0.2,0.1,0,0.8-0.6,0.6c0.2,0.2-0.2,0.2-0.2,0.4    l-0.2-0.1c-0.2,0.1-0.2,0.2-0.2,0.3c0,0,0,0,0.1,0c0.1,0.2,0,0.2-0.2,0.2c0,0-0.3,0.1-0.3,0.1c0,0.1-0.1,0.2-0.1,0.3    c-0.1,0.1-0.4,0.4-0.4,0.4c0,0.1,0,0.2,0,0.2c0,0.1-0.2,0.2-0.3,0.2c-0.1,0.1-1.6,1.5-2,1.8l-0.6,0.2c0,0.1-0.1,0.3-0.1,0.3    c0-0.1-0.1-0.1-0.1-0.2L312,114c-0.2,0.1-0.5,0.3-0.9,0.3c-0.3,0-0.7-0.1-0.9-0.1c-0.4,0-0.6,0.2-1,0.2c-0.1,0-0.2,0.1-0.2,0.2    c-0.1,0-0.2,0-0.2,0c-0.2,0-0.3,0.2-0.5,0.2l-0.1,0.4l-1.3,1c0,0-0.2-0.1-0.3-0.2l0.2-0.7l0.4-0.5l0-0.3l0.1-0.2    c-0.2,0-0.4,0-0.6-0.1l-0.4,0.4l0-0.3l0-0.2c-0.9-0.3-1.9-0.8-2.9-1.7l-1.6-1.6l-0.4-0.9l-0.4-0.5l-0.9-2.3c0,0-0.5-2.3-0.5-2.7    c0-0.2-0.1-0.3-0.2-0.5c-0.1-0.6-0.3-3-0.4-3.2c0,0,0.2-0.9,0.2-1.8c0-0.1,0-0.1-0.1-0.2c0-0.3,0-0.6,0-1c0,0,0.3-1.3,0.3-1.4    c0.1-0.6,0.4-0.9,0.6-1.4c0.3-0.7,0.3-1.5,0.3-2.2c0.1-0.7,0.5-1.4,0.8-2l2.3,2.4c0.7,0.4,1.3,0.8,1.7,1.4c0,0.1,0.1,0.1,0.1,0.2    c0.1,0,0.3,0.1,0.4,0.2c-0.1,0-0.1,0.1-0.1,0.2c0.3,0.3,0.6,0.5,0.9,0.9c0.2,0.2,0.3,0.8,0.6,1c0.1,0,4.6,4.8,4.6,4.8l-2.8-7.6    c-0.2-0.2-0.4-0.4-0.4-0.6c0-0.1,0-0.3,0-0.4c0,0-0.2-0.2-0.3-0.4c0-0.5-0.5-0.9-0.5-1.4c0-0.1,0-0.3,0-0.4l-0.8-2.3    c-0.1,0.1-0.3,0.2-0.3,0.3c-0.2,0,0.1-0.4,0.1-0.6c0.2-0.6-0.5-0.6-0.5-1.1l0.3,0.2c0.1-0.1-0.3-0.6-0.4-0.7c0,0,0.1,0,0.2,0    l-0.2-0.6l-0.5-0.6c0,0-0.1,0-0.1,0.1c0.1,0,0.2,0.2,0.3,0.4l0.4,0.5c-0.3,0.1-0.6-0.7-0.9-0.5c-0.1-0.3,0-0.2,0-0.3    c0,0,0-0.1-0.1-0.1c0.1,0,0.2,0.1,0.3-0.1c-0.1-0.1-0.7-0.8-0.7-0.8c0,0,0,0.1,0,0.1c-0.2-0.5-0.3,0.2-0.5-0.3    c0.1-0.1,0.1-0.2,0.2-0.2l-0.2-0.2c0.1-0.2,0.1-0.4,0-0.6c-0.8-0.8-1.7-1.5-2.3-2.4c-0.3-0.4-0.5-0.9-0.9-1.3    c-0.2-0.2-0.5-0.4-0.7-0.5c-0.8-1-1.6-2-2.5-2.8c-0.8-0.7-1.4-1.4-2-2.2c-0.3-0.3-0.5-0.7-0.9-1c0-0.2-0.1-0.5-0.4-0.5    c-0.2,0-0.4-0.2-0.5-0.3c-0.2-0.1-0.4-0.1-0.5-0.3c0,0,0,0,0,0l-2.4-2.2c-0.1,0.1,0,0.6-0.3,0.3c0-0.1,0.1-0.3,0.1-0.4l-0.4-0.4    c-0.1,0-0.3,0.1-0.5-0.1l0.2-0.2l-1-0.9c-0.1,0.2,0,0.8,0,0.9c-0.2-0.5-0.6-0.7-0.5-1.2l0.4,0.2c-0.1-0.2-0.6-0.6-0.6-0.6    c-0.1,0-0.2-0.1-0.3-0.2l-1.8-1.6l-0.1,0.2L286,66l0.1-0.2l-0.3-0.3c-0.2,0-0.3,0-0.4-0.3c0.1,0.1,0.1,0,0.2,0.1l-0.2-0.3    c-0.5,0.3-1.3-1.1-1.8-0.6c-0.1-0.5,0.1-0.2,0.7-0.1l-0.1-0.4l-0.5-0.4c-0.1,0-0.3-0.1-0.4-0.1c0-0.1,0-0.1,0.1-0.2l-0.5-0.5    c-0.1,0.2,0,0.5-0.3,0.3l0-0.6c-0.7-0.2-0.9-0.7-1.2-1.1l-0.1-0.1c-0.1-0.1-0.3,0.2-0.6,0c0,0,0.3-0.1,0.4-0.1    c-0.3-0.5-1.2-0.5-1.4-1c0.1,0,0-0.4,0-0.5l-0.8-0.4c0.2,0.1,0.3,0.1,0.4,0l-0.9-0.8c0,0.1,0.1,0.1,0.1,0.2    c-0.8-0.5-0.7-0.7-0.7-0.7l-2.3-2.1c0,0.1,0,0.1-0.3-0.1c0-0.1,0-0.2-0.1-0.3l-0.3-0.3c0,0.1,0.1,0.3,0.2,0.4    c-0.3-0.2-0.4-0.4-0.5-0.6l-0.8-0.7c0,0.1,0.1,0.2,0.3,0.4c-0.2-0.1-0.3-0.3-0.4-0.5l-4.6-4.2l-5-4.9c-0.6-0.5-1.1-1-1.7-1.4    l0.2,0.3c-0.8-0.5-0.9-0.8-0.9-0.8c0.1,0,0.2,0.1,0.2,0.1c0-0.1,0.1-0.2,0.1-0.3l-0.3-0.3l-0.1,0l0-0.1l-0.2-0.2    c-0.1,0.1,0,0.3-0.3,0.1c0-0.1,0-0.3-0.1-0.4l-1-1c0,0,0,0.1-0.1,0.1c0-0.1,0-0.2-0.1-0.3l-0.1-0.1l-0.1,0.2c-1.4-1.8-2-2.3-2-2.3    l-0.4-0.4c-0.1,0-0.2,0-0.3,0c0-0.1,0.1-0.1,0.2-0.1l-0.1-0.1c-0.3-0.1-0.5-0.3-0.6-0.6l-0.1-0.1c-0.1,0-1.3,0.1-1.4,0.1l-3.2,3.2    c0,0.2,0,0.5,0.1,0.7c0.2,0.2,0.4,0.3,0.5,0.5c0,0,0-0.1,0-0.2c0,0.1,0.1,0.2,0.2,0.4c1.2,1.1,2.3,2.2,3.2,3.1    c0.3,0.4,0.6,0.7,0.9,1.1c0.8,1.1,2.3,2.8,3.6,3.3c0.1,0,0.5,0.4,0.6,0.5c0.2,0.2,0.2,0.3,0.3,0.5c0.2,0.3,0.3,0.4,0.6,0.6    c0.3,0.2,0.7,0.6,1,0.7c0.2,0.2,1.6,1.5,1.9,1.8c0,0,0-0.1,0-0.1l0.2,0.2c0,0.1,0,0-0.1,0c0.6,0.5,1.1,1.1,1.7,1.7    c0.4,0.5,1,1,1.5,1.5c0.5,0.5,0.8,1.1,1.5,1.4c0.1,0.1,0.2,0.2,0.3,0.2c0.3,0.1,0.4,0.3,0.6,0.6c0.2,0.2,0.4,0.4,0.6,0.6    c0.9,1.1,2,2.3,3.1,3.2c0.5,0.4,1.9,1.5,2.1,1.7c0.9,0.8,1.7,1.6,2.5,2.4c0.3,0.1,0.6,0.2,0.6,0.3c0.1,0.1,0.1,0.2,0,0.3    c0.1,0.1,0.1,0.1,0.2,0.2c0.1-0.1,0.2-0.3,0.4,0.2c-0.1,0-0.2-0.1-0.2,0c0,0,0.5,0.5,0.5,0.6c0.1,0.1,0.3,0.2,0.4,0.3    c0.5,0.5,1,1,1.5,1.4c0.5,0.6,1,1.2,1.5,1.8c0.4,0.5,0.8,0.8,1.4,1.2c0,0,0.2,0.2,0.5,0.4l6.3,6.9l0.1-0.2    c0.2-0.2,0.1,0.1,0.1,0.4c0,0,3.2,3.5,3.2,3.5c0.1-0.2,0.4-0.2,0.6-0.1c0.2-0.3,0.5-0.7,0.6-0.5c0.1,0.3,0.2,0.8,0.2,0.8l0.1,0.7    l0.1,0.4c0,0,0,0.3,0,0.4c0.3-0.1,0.6,0.8,0.6,0.8l0.5,0.6c0.2,0,0.3,0.2,0.3,0.3l0.2,0.2c-0.9,0.6-1.3,0.9-1.8,1.7l-0.5,0.8    l-0.5,0.3l-0.4,0.7l-0.7,1.3c-0.6,0.9-0.8,1.3-1,2c-0.1,0.3-0.2,0.6-0.4,1.1l-0.3,1.3c0.1,0.1,0.2,0.2,0.4,0.2l-0.2,0.3    c0,0-0.1-0.2-0.3-0.2c-0.1,0.2-0.2,0.4-0.2,0.4c0,0,0.1-0.1,0.2,0c-0.2,0.1,0.3,0.1,0.2,0.2c-0.2,0-0.3,0-0.3,0l0,0.9    c-0.1,0.2-0.2,0.7-0.2,0.7c-0.1,0.4,0.1,0.8,0.2,1.2c0,0.2,0,0.4,0,0.6c0,0.3,0,0.7,0.1,1c0,0.3,0.1,0.5,0.1,0.8    c0.1,0.3,0.2,1.3,0.2,1.3c0.2,0,0.4-0.2,0.3,0c-0.1,0-0.2,0.1-0.3,0.1l0.3,0.4c0,0,0,0,0.1-0.1l0.1,0L293,105l0,0.2    c0.1-0.1,0.2-0.1,0.3-0.2c-0.2,0.2-0.1,0.2-0.3,0.3l0,0.3l0.2,0.9c0,0.1,0,0.1,0.1,0.2c0.3,0.1,0.1,0.5,0.7,0.3    c-0.2,0.2-0.2,0.1-0.5,0c0.1,0.2,0.1,0.4,0.2,0.6c0.1,0,0.1-0.1,0.2,0l-0.2,0.1c0,0.2,0.2,0.6,0.2,0.6c0.1,0,0.3-0.1,0.3,0    l-0.3,0.1c0,0.1,0,0.1,0.1,0.2c0.1,0.1,0.4,0.1,0.4,0.2c-0.1,0-0.1,0.1-0.2,0.1c0,0.1,0,0.1,0.1,0.2l0.2,0.1c0,0-0.1,0-0.1,0    c0.1,0.2,1.4,2,1.4,2c0.3,0.4,1.2,1.3,2.3,2.2c0,0,0.1,0.1,0.1,0.1c0.3,0.4,0.5,0.5,0.9,0.8c0.4,0.3,0.8,0.5,1.3,0.6    c3.2,1.7,6.4,2.2,8.6,2.3c0.4,0.2,0.9,0.3,1.3,0.3c0.3,0,0.5-0.2,0.8-0.3c0.6-0.1,1-0.1,1.6-0.3c0.5-0.1,0.9-0.2,1.3-0.2    c0.6,0,1.2-0.1,1.8-0.3c0,0,0-0.1-0.1-0.1c0-0.2,0.1,0,0.2,0.1c0.4-0.1,0.8-0.3,1.3-0.4c0.1-0.1,0.2-0.3,0.1-0.5    c0.2,0,0.4,0,0.6-0.1c-0.1,0-0.2,0.2-0.1,0.3c0.1,0,0.2-0.1,0.3-0.1c0.1,0,0.3,0,0.4-0.1c0.3,0.1-0.1-0.3,0.3-0.3    c0.1,0.1,0.1,0.2,0.1,0.2c0.3-0.1,0.5-0.3,0.8-0.4c0.1-0.1,0.1-0.2,0.1-0.3c0.3-0.2,0.6-0.4,0.9-0.6c0.2,0,0.3,0,0.5,0    c0.3-0.1,0.5-0.4,0.7-0.6c0.5-0.4,0.9-0.7,1.2-1.4c0.5-0.5,1-1.1,1.4-1.7c0.3-0.2,0.5-0.5,0.6-0.8c0.1-0.3,0.2-0.5,0.3-0.8    c0-0.1,0.3-0.7,0.3-0.8c0.1-0.1,0.1-0.1,0.1-0.2c-0.2,0-0.3,0-0.2-0.1c0.1,0,0.1,0,0.2,0c0.1-0.2,0.1-0.3,0.2-0.5c0,0,0-0.1,0-0.1    l0.1,0c0.1-0.2,0.2-0.4,0.2-0.7c-0.2,0-0.4,0.1-0.5,0.1c0.3-0.1,0.3-0.3,0.6-0.4c0.3-1,0.6-2,0.8-3.1c0-0.1-0.1-0.1-0.3-0.2    c0.2-0.1,0.2-0.1,0.3,0.1c0.1-0.6,0.3-2.1,0.3-2.6C326.8,100.2,326.7,100.2,326.8,100.1C326.8,100.1,326.8,100.1,326.8,100.1z     M282.8,63.7c0.2-0.3,0.1,0.1,0.4,0.3C283.1,63.9,282.9,63.8,282.8,63.7z M289.4,69.4l-0.1-0.3C289.4,69.2,289.5,69.3,289.4,69.4    L289.4,69.4z M293.8,107.2c0,0.1,0.1,0.1,0.1,0.1C293.5,107.5,293.9,107.3,293.8,107.2z M325.4,106.7c-0.1,0.1-0.1,0.1-0.2,0.1    l-0.1,0L325.4,106.7z M326.4,102.6c0-0.1,0-0.2,0-0.3C326.8,102.3,326.4,102.4,326.4,102.6z"/>
            <path class="st0" d="M228.4,59.6c0.2-0.1,0.4-0.2,0.5-0.3c0.3-0.2,0.6-0.5,0.8-0.7c0.3-0.3,0.6-0.5,0.9-0.7c0.3-0.3,0.6-0.7,1-1.1    c0.1-0.1,0.1-0.2,0.1-0.3c1.6-1.5,4.7-4.5,4.8-4.6c0.1-0.3,0.2-0.7,0.3-0.6c0.1-0.1,0.2,0,0.3,0.1c0.1,0,0.1-0.1,0.2-0.1    c-0.1-0.2-0.3-0.3,0.1-0.3c0,0.1,0,0.2,0,0.2l0.1,0c0,0,3.8-3.6,4.2-4c0-0.2,0-0.3,0.1-0.5c0,0.1-0.1,0.2,0,0.2    c0.1,0,0.1-0.1,0.1-0.2c0,0,0.1,0.1,0.1,0.1c0.1-0.1,3.7-3.5,5.9-5.6c-0.1-0.1-0.1-0.1,0-0.2c0,0-0.2-0.2-0.2-0.2    c-0.2-0.2,0.6-0.1,0.6-0.1c0.3-0.3,0.6-0.6,0.9-0.9c0.1-0.3,0.3-0.5,0.6-0.5c0.3-0.3,0.8-0.8,0.8-0.8c0.2-0.3,0.3-0.6,0.5-0.8    l-0.2-0.2c0.4-0.2,0.7-1.2,1.3-0.9c-0.1-0.2,0.5-0.3,0.6-0.6l0.2,0.1c0.3-0.2,0.4-0.3,0.4-0.5c0,0-0.1,0-0.1,0    c0-0.2,0.2-0.3,0.3-0.3c-0.1-0.1-0.1-0.3-0.1-0.4c-0.1-0.4,0.1-0.7,0.1-0.7s0.1,0.4,0.2,0.6c0.1,0.2,0.2,0.4,0.2,0.4    c0.1-0.1,0.2-0.2,0.3-0.3c0.1-0.2,0.5-0.6,0.8-1c0.1-0.3,0.3-0.5,0.6-0.5l0.3-0.2c0,0.1-0.1,0.2,0,0.2l0.2-0.2    c-0.1-0.1,0-0.5,0.1-0.3c-0.1,0,0,0.1,0.1,0.2l0.4-0.4c0,0-0.1-0.1-0.1-0.1c0-0.1,0.1-0.1,0.1-0.1c0.2-0.2,0.1-0.2,0-0.2    c0.2,0,0.3,0,0.4,0l1-1.1l0-0.2L258,31l0.4-0.4l0-0.2l0.1,0.1l4.5-4.9l4.3-3.6c0,0,0.1,0,0.1,0c0.3-0.1,0.5-0.2,0.7-0.2    c0.2,0,0.3-0.1,0.5-0.1c0.1,0,0.1,0,0.2,0c0.1,0,0.3,0,0.4,0c0.1,0.1,0.3,0.2,0.3,0.2c0.3,0,0.6,0,0.9,0.2    c0.4,0.3,0.6,0.7,0.9,1.1c0.1,0.2,0.1,0.4,0,0.5c0.2,0.2,0.5,0.8,0.5,0.8c0.1,0,0.2-0.1,0.3,0c0,0.1-0.1,0.2-0.1,0.2    c0,0.1,0.1,0.1,0.1,0.2c0,0,0.1-0.1,0.1-0.1c0.2,0.3,0.2,0.7,0.3,1c0,0,0,0.1,0,0.1c0,0.1,0.1,0.2,0.2,0.3c0,0-0.1,0-0.1,0.1    c0,0.1,0.1,0.2,0.1,0.4c0.1,0.1,0.1,0.2,0.2,0.1c-0.1,0.1-0.1,0.1-0.2,0.2c0,0.2,0.1,0.4,0.1,0.6c0.4,2.7-0.7,4.3-1.9,5.4    c0.2,0.1,0,0.2-0.1,0.4v5c0.1,0.1,0.2,0.2,0.1,0.2c0,0.1-0.1,0.1-0.1,0.1v0.1c0.1,0,0.2,0,0,0.2c0,0,0,0,0-0.1v3.2    c0.1,0,0.2,0.1,0.2,0.2c-0.1,0-0.1-0.1-0.2-0.1v2.3c0.1-0.1,1-0.9,1.1-0.9c0-0.1-0.1-0.2-0.1-0.3l0.3,0.1c0,0,0.1-0.1,0.1-0.1    c0,0-0.1-0.1-0.1-0.1c0.2-0.2,0.4-0.3,0.7-0.4c0.1-0.1,5.2-4.7,6.7-6.6l-0.3-0.6l-0.2-0.7l0.1-1c0,0,0.7,0.3,0.8,0.6    c0.1,0.3,0.5,0.8,0.5,0.8c0.5-0.6,2.2-2.5,2.2-2.5c0.9-1.1,4.2-5.2,5.4-6.9l-0.2-0.1c-0.2-0.1,0-0.1,0.2,0    c0.5-0.7,0.9-1.3,1.2-1.8c0-0.1,0-0.2,0.1-0.3l-0.2-0.2c0.2-0.1,0.1-0.8,0.7-0.7c-0.2-0.2,0.2-0.3,0.2-0.4l0.1,0.1    c0.1-0.1,0.1-0.2,0.2-0.3c0,0,0,0-0.1,0c-0.1-0.2,0.2-0.3,0.2-0.3c0.2-0.4,0.4-0.9,0.4-0.9l0-0.1c0,0-3.8,0.4-8.2-2.4    c0,0-0.1,0-0.2,0c0-0.1,0-0.1-0.1-0.2c-0.1,0-0.1-0.1-0.2-0.1c0,0.1,0.1,0.3,0.1,0.2c-0.2,0-0.3-0.2-0.3-0.3    c-0.1-0.1-0.3-0.2-0.4-0.3c-0.1,0.1-0.1,0.2,0.1,0.3c-0.3,0.1-0.2-0.5-0.5-0.4l0.2-0.1c0,0-0.4-0.3-0.6-0.4c-0.1,0-0.1,0-0.2,0.1    c0.3-0.4-0.2-0.1-0.2-0.3c0,0,0.1,0,0.1,0c0,0-0.2-0.1-0.2,0c0-0.3-0.4-0.1-0.5-0.3c0,0,0.2,0,0.2,0c0,0-0.3-0.2-0.4-0.4    c0,0-0.4,0.1-0.5,0.1c0-0.1,0.2-0.3,0.2-0.4c-0.1-0.1-0.5-0.2-0.5-0.5c-0.2-0.2-0.3-0.3-0.5-0.5c-0.1,0-0.2,0-0.3-0.1    c0.1,0,0.1,0,0.1-0.1c-0.7-0.7-1.2-1.3-1.9-2l0.4-1.1c0,0-0.2,0.2-0.2,0.2c0,0,0-0.2,0-0.4c0-0.1,0-0.2,0.1-0.3c0,0,0.1,0.1,0,0.1    c0,0,0.2-0.1,0.2-0.1l-2.1-2.3l0.3-0.3l0-0.2l0.2,0.1l0.3-0.5l0.1,0l0.1-0.3l0.1,0.1l0.1-0.2l0.2-0.1l0.1-0.3l0,0.2l0.3-0.3    l0.1-0.3l0-0.1l0.3,0l0-0.2l0.2-0.1l-0.1-0.1l0.2-0.1l0.3-0.4l1-1.2L277.1,6L277,6.2l-0.3,0.2l-1.8,1.8l0,0.1l-0.1,0l-0.4,0.4    l-2-1.8L270.6,7l-1.4-1.1l-0.8,0.4V5.7L268,5.6l-1.5,1.5l0.5-2.7l-0.4,0.2c0,0,0-0.6-0.1-0.9c0-0.1,0-0.2,0-0.3l-2.3-2.3    c-0.3,0-0.5,0-0.8,0c0,0.1,0,0.3,0.1,0.3c0,0.2-0.2-0.3-0.2-0.3l-2.4,2.5c0,0,0,0.1-0.1,0.2c-0.1,0-0.1,0-0.2,0l-0.3,0.3    c0.1,0,0.2-0.1,0.3-0.1c-0.1,0.2-0.3,0.3-0.4,0.3l-0.5,0.5c0.1,0.1,0.2,0.1,0.3-0.1c-0.1,0.3-0.7,0.2-0.6,0.6l-0.1-0.1l-0.8,0.8    c0,0.1-0.1,0.3-0.2,0.3c0,0,0-0.1,0-0.1L258,6.4c0,0.1-0.1,0.2-0.2,0.3c0,0,0-0.1,0-0.1c0,0.1-0.6,0.6-0.6,0.6    c0,0,0.1,0.1,0.1,0.2c-0.1,0-0.4,0.1-0.4,0.1c-0.1,0.2-0.1,0.4-0.3,0.6l0.6,0.6c0.2-0.1,0.3-0.1,0.4,0c-0.1,0-0.2,0-0.2,0.1    c0,0.1,0.1,0.1,0.1,0.1c0,0-0.1,0.1-0.1,0.1l2.4,2.4l2.2-0.4c-0.1-0.3-0.1-0.5-0.1-0.5l1,0.3l0.4,0.5c-0.2,0.2-0.7,0.1-0.9,0.1    l-1,1c0,0.2,0,0.5,0,0.7c0.1,0.1,0.1,0.2,0.2,0.3c0.1,0,0.2,0.1,0.3,0.1c-0.1,0.1-0.1,0.1-0.1,0.2c0,0,0.3,0.3,0.3,0.3    c0,0,0.2,0.2,0.3,0.2c0.4-0.3,0.5,0,0.5,0l0.2-0.1c0.3-0.1,0.1,0.2,0,0.4c0,0.1-0.1,0.5-0.2,0.5l0.2,0.3l-2.4,2.9l0.1,0.1    c-0.3,0.2-0.4,0.9-0.9,0.8l-6.3,7.3c0.1,0,0.2,0.1,0.2,0.1c-0.1-0.1-0.3,0-0.4,0.1l-2.8,3.2c-0.1,0-0.2,0.1-0.3,0.2    c-0.1,0.3-0.2,0.2-0.4,0.2c0,0-0.3,0.1-0.3,0.1c-0.2,0-1.1-0.6-1.1-0.6l-0.3-0.1c0.1,0,0.1,0,0.2,0l-1.8-2.1c0,0.1-0.1,0.1-0.2,0    c0-0.1,0-0.2,0-0.2l-0.2-0.2c-0.1,0.1,0,0.3,0,0.3c-0.2-0.1-0.2-0.3-0.2-0.4l-0.4-0.4c-0.1,0.1-0.1,0.1,0.1,0.3    c-0.2,0-0.2-0.3-0.2-0.4l-4.5-5.1c-0.2-0.1-1.1-1-1.2-1.1l0.1,0.2c0-0.1-0.5-0.2-0.5-0.5c0,0,0.1,0,0.1,0.1    c0.1-0.1,0.1-0.2,0.1-0.3l-0.2-0.3c-0.1,0-0.1,0.3-0.2,0.1c0.1-0.1,0.1-0.2,0.1-0.3l-0.5-0.6c0,0,0,0.1-0.1,0.1    c0-0.2-0.1-0.3-0.1-0.3l-0.1,0.2c-0.3-0.5-0.4-0.8-0.6-1.1l-0.5-0.6c-0.1,0-0.1,0-0.2,0c0-0.1,0-0.1,0.1-0.2l-1.3-1.5l1.6-1.9    c0-0.1,0.1-0.7,0.1-0.8l-1.7-1.7l1.9,0.4c0.3-0.5,0.7-0.1,0.8-0.1c0.1-0.1,0.3-0.2,0.5-0.2c0.1,0,0.3,0.1,0.4,0.1l2.1-2.1    c0.1-0.1,0.1-0.2,0-0.3c0,0,0.1,0,0.1,0c-0.3-0.4,0.3-0.7,0.2-0.8l0.3,0c-0.3-0.2-0.4-0.3-0.3-0.5l-2.1-2.1c0,0-0.1,0.1-0.1,0    c0,0,0,0,0-0.1l-0.7-0.7c-0.1,0.2-0.1,0.3-0.1,0.4c0-0.3-0.1-0.3,0-0.6l-1.5-1.5c-0.2-0.1-0.3-0.4-0.7,0c0.1-0.3,0.1-0.2,0.4-0.2    L236.5,2c0,0-0.1,0.1-0.1,0l0.1-0.1L235.8,2l-0.2-0.4l-0.1-0.3c-0.2,0.2-0.6,0.2-0.6,0.2l-1,0.4L231.8,4l0.6,3.2l-1.3-1.3L230.6,6    l-0.4-0.3h-0.4L228.2,7l-1.8-0.1l-2,1.8l-1.3-1.3l-0.6-0.5l-1.3-1.3l-0.9-0.8l0.7,0.9l0.2,0.1l0.4,0.7l0.2,0.1l-0.1,0.1l0.3,0.2    l-0.1,0.1l0.2,0l0,0.1l0.2,0l0.4,0.6l0.1-0.3l0,0.4l0.2-0.1l0,0.4l0.2,0l0.1,0.4l0.1,0l0,0.2l0.2-0.1l0,0.2l0.3,0.3l-1.1,1.1    l0,0.2l-0.4,0.2l-0.5,0.5c0,0.1,0,0.2,0,0.3l0.5,1.3c-0.6,0.6-1.6,1.7-1.7,1.8c-0.1,0.1,0.1,0.2,0,0.2c0,0-0.3,0.1-0.4,0.1    c-0.1,0.1-0.1,0.2-0.2,0.3c-0.3,0.3-0.6,0.5-1,0.8c-1.6,1.5-2.9,2.2-2.9,2.2c0.5,0.5,1,1.2,1.1,1.4c0.1,0.1-1.2-0.2-1.2-0.2    s-0.9-0.4-1-0.6c-0.1,0.1-0.3,0.1-0.4,0.2c0,0.1,0.1,0.1,0,0.1c0-0.1-0.1,0-0.1-0.1c-2.4,1.2-4.4,1.6-5.6,1.6c0,0.1,0.1,0.2,0,0.2    c0-0.1,0-0.1,0-0.2c-0.1,0-0.6,0-0.7,0c0,0.1,0,0.2,0,0.2s0-0.1-0.1-0.2c-0.3,0-0.4,0-0.4,0s0.7,1.8,3.6,5.8    c0.2,0.1,0.3,0.1,0.2,0.2c0,0.1,0.2,0.1,0.1,0.2c0,0,0.1,0.1,0.1,0.1c0.1-0.1,0.2,0,0.2,0.1c-0.1-0.1-0.2,0-0.2,0    c0.7,1,1.5,2,2.5,3.2c0.1,0,0.2,0,0.3,0.1c-0.1,0-0.1,0-0.2,0c0,0,1.6,1.9,2.5,3c0.4,0.5,0.8,1,1.3,1.4l0.1-0.1    c0.1-0.1,0.1,0,0,0.2c0.7,0.8,1.4,1.5,2,2.2c0,0,0.4,0,0.8,0.8c0.1,0,0.1,0.1,0.2,0.2c0.8,0.9,3.9,3.8,4,3.9l0.1-0.1l-0.1,0.1    c0,0,1.8,1.6,1.9,1.7c0-0.1,0.1-0.2,0.1-0.2c-0.1,0.1,0,0.2,0,0.3c0.3,0.3,0.5,0.4,0.6,0.5v-4.5c-0.1-0.1-0.2-0.1-0.4-0.1l0.1-0.3    c0,0,0.1,0.1,0.3,0.1c0,0,0-0.3,0-0.3c0,0-0.4,0-0.2-0.2c0.1,0,0.2,0,0.2,0v-5.2c-0.2,0-0.4,0.1-0.4,0c0.1,0,0.3,0,0.4-0.1v-0.1    c-0.1,0-0.2,0-0.3-0.1l0.3,0c0,0-0.3-0.4-0.1-0.4c0,0,0.1,0,0.1,0v-0.3c0,0-0.2-0.2-0.2-0.2c-0.1-0.1-0.2-0.2-0.3-0.3    c0,0-0.1-0.1-0.1-0.1c-0.1,0.1-0.2,0.2-0.2,0.1l0.2-0.2c-0.1-0.2-0.3-0.3-0.4-0.5c-0.1,0.1-0.1,0.1-0.2,0l0.2,0    c-0.1-0.1-0.1-0.2-0.2-0.3c-0.1,0-0.2-0.1-0.2-0.1c0,0,0.1,0,0.1-0.1c-0.5-1-0.8-2.2-0.6-3.8c0.2-1.1,0.5-2,1-2.8    c0.1-0.3,0.3-0.5,0.3-0.8l-0.2,0.1c0.1,0-0.1-0.3,0.2-0.3c0,0,0,0.1,0,0.1c0.1,0,0.2,0.1,0.2,0.1c0,0,0.1-0.2,0.1-0.2    c-0.1,0-0.2-0.1-0.2-0.2c0.1,0.1,0.2,0.1,0.2,0.1c0.1-0.1,0.2-0.2,0.3-0.3c0,0-0.1,0-0.1-0.1c0.1,0,0.1,0,0.2,0c0,0,0,0,0,0    l-0.2-0.1c0.2-0.1,0.4-0.2,0.5-0.3c0.1-0.1,0.2-0.2,0.3-0.3c0,0,0.4-0.7,0.8-0.9c0.2-0.4,0.4-0.6,1-0.4c0.2,0.1,0.3,0.2,0.3,0.4    l0.3,0.2c0,0,0.1,0,0.1-0.1l0,0.1l0.1,0.1c0,0,0.1-0.1,0.1-0.1c0,0,0.1,0,0.2-0.1c-0.1,0.2-0.1,0.3-0.1,0.4l0.9,0.8    c0.1-0.1,0.1-0.1,0.2-0.1l-0.1,0.2l0.1,0.1c0,0,0,0,0.1-0.1c0.1,0,0.1,0.1,0.1,0.2l3.3,2.8l0.6,0.7c0.3,0,0.5,0,0.7,0.1    c0.4,0.1,0.5,0.1,0.1,0.2c-0.1,0.1-0.3,0.1-0.4,0.1c0.2,0,0.2,0,0.2,0s0,0.1-0.1,0.3l0.2,0.2c0.1,0,0.3-0.1,0.2,0    c0,0,0,0.1-0.1,0.2l0,0c0.1-0.1,0.2-0.2,0.2,0c0,0-0.1,0-0.1,0.1c0,0,0,0,0,0l1.1,1.2c0.1-0.1,0.3-0.2,0.3-0.2    c-0.1,0-0.1,0-0.2,0.1c-0.1,0.1,0,0,0.1,0c0,0-0.1,0.1-0.1,0.1l1.5,1.6c0.1-0.1,0.4-0.4,0.4-0.4c0.2-0.2,0,0.1-0.1,0.3    c0,0,0,0.1,0,0.1c0,0,0,0,0,0c0,0,0,0,0,0c0,0.1,0,0.1,0.1,0.1c-0.1,0.2,0,0.2,0.2,0.2c0.2,0,0.4,0.1,0.2,0.4l0.3,0.3    c0.1,0,0.2,0.1,0.2,0.1l0.3-0.1c0,0.1,0.4,0.2,0,0.5l0,0c0,0,1.6,1.9,2.5,2.6c0.1,0.1,0.2,0.5,0.3,0.5c-0.1,0.2-0.2,0.4-0.2,0.6    c0,0.1,0,0.2,0,0.2l-0.2,0.2l0.1,0.3l-0.2-0.2c0,0-0.9,0.9-0.9,0.9c-0.1,0.1-0.2,0.2,0.1,0.2c-0.2,0-0.4,0.1-0.5,0.1l-2.6,2.6    c0,0.1,0.1,0.1,0,0.2l-0.2,0l-4.7,4.6c-0.2-0.1-0.5,0-0.5,0.3c0,0.2-0.7,0.6-0.9,0.8c-1,1.1-3.2,3.4-3.2,3.4    c-0.2-0.1-0.4-0.1-0.5,0c-0.5,0.4-0.9,0.9-1.3,1.3c-0.3,0.3-0.8,0.5-1.1,0.8c-0.4,0.5-1.3,1.3-1.6,2c0,0-1.6,1.4-1.7,1.5    c0.1,0.1,0,0.1-0.2,0.1l-1.7,1.6c0,0,0.8,1.3,0.5,1.3c-0.3,0-0.7,0.5-0.7,0.5l-1.4-0.4c0,0,0,0,0,0c0,0-0.2,0.1-0.2,0.1    c0,0.1,0.2,0.2-0.1,0.4l-0.1,0.3l-0.3-0.2c0,0-6.8,6.3-7.1,6.5c0,0.1,0,0.2-0.1,0.3c-0.5,0.7-1,1.4-1.7,2    c-0.7,0.6-1.5,0.9-2.2,1.5c0,0.2-0.1,0.4-0.3,0.5c-0.1,0-0.2,0.4-0.3,0.5c-0.2,0.2-0.5,0.2-0.7,0.4c-0.1,0.1-0.3,0.1-0.4,0    l-0.3,0.2c0.1,0.2,0.6,0.1,0.2,0.3c-0.1-0.1-0.3-0.1-0.4-0.2l-0.3,0.3c0,0.1,0.1,0.3-0.1,0.5l-0.2-0.2l-1.3,1.3    c-0.1,0.2,0,0.4-0.3,0.3l-1.5,1.6l0.3,0.1l-0.1,0l-0.2-0.1l-0.3,0.3c0,0.2,0,0.3-0.2,0.4c0.1,0,0-0.1,0-0.1l-0.2,0.2    c0.3,0.4-0.7,0.4-0.2,0.9c-0.5,0.1-0.4,0.6-0.4,0l-0.3,0.1l-0.5,0.5c0,0.1,0,0.2,0,0.3c-0.1,0-0.1,0-0.2-0.1l-0.4,0.5    c0.2,0,0.4,0,0.2,0.3l-0.4,0l-1.2,1.4c0,0,0.3,0.1,0.1,0.4c0,0-0.1-0.2-0.2-0.3c0,0-0.5,0.5-0.5,0.5c-0.1,0.2-0.2,0.5-0.3,0.7    c0-0.1-0.2-0.1-0.3,0l-0.3,0.3l0,0.3c0,0-0.1-0.1-0.1-0.1l-4.8,5.4l-0.3,0.8c0,0-0.1,0.1-0.1,0.1c-0.3,0.4-0.6,1-0.6,1.5    c0,0.1,0,0.1,0,0.2l-0.2,0.6c0.1,0.1,0.2,0.2,0.1,0.2c-0.1,0.1-0.1,0.2-0.2,0.2l-0.1,0.2c0.2,0.1,0.4,0.1,0.1,0.3    c0-0.1,0-0.1-0.1-0.1c0,0-0.1,0-0.1,0l-1.3,3.5c0.1,0,0.2,0.1,0.1,0.2c0,0,0.1,0.1,0,0.1c-0.1,0,0,0.1,0,0.1    c-0.1,0-0.1-0.1-0.3-0.1l0,0c0.3,0.3-0.1,0.4-0.1,0.7c0-0.1-0.1-0.1-0.2-0.1l-1.4,3.9c0,0.1,0,0.3,0.1,0.3c-0.4,0-0.1,0.3-0.3,0.3    c0,0,0,0.1,0,0.2c0.2,0,0.3,0.1,0.3,0.2l0.2,0c0.2,0.1-0.1,0.1-0.3,0.1c-0.1,0-0.2,0.1-0.2,0.1c0,0-0.1,0.1-0.1,0.2    c-0.2,0.1-0.3,0.2-0.4,0.3c0,0-0.4,1.2-0.4,1.3l3.2-3.3c1-0.9,2-1.8,3.1-2.8c0.9-0.8,2-1.7,2.5-2.9c0-0.1,0-0.1,0-0.2l0.3-0.3    c0.2,0.1,0.4,0.2,0.6,0c0.5-0.5,1-1.1,1.5-1.6c0.3-0.3,0.5-0.7,0.8-0.9c0.2-0.3,0.5-0.4,0.7-0.8c0.1-0.1,0.1-0.3,0-0.4l2.2-2.5    l-0.2-0.1c-0.2-0.1,0.1,0,0.3,0c0,0,1.4-1.6,1.4-1.6l-0.2-0.2c0.2-0.1,0.5-0.3,0.7-0.4c-0.1-0.2,0.3-0.2,0.4-0.3l3.5-3.9    c0.2,0,0.4,0,0.5-0.2c0.4-0.7,1.1-1.1,1.5-1.9c0-0.1,0.2-0.4,0.2-0.4c0.1,0,0.1,0,0.2-0.1c0.8-0.5,1.7-1.3,2.4-1.9    c0.4-0.4,0.7-0.9,1-1.3c0.1,0,0.3-0.4,0.4-0.5c0.3-0.2,0.6-0.5,0.8-0.6c0.3-0.2,0.6-0.5,0.7-0.8c0,0,1.1-0.6,1.5-1.1    c0.7-0.8,1.2-1.7,2-2.5c0.1,0,0.3-0.3,0.3-0.3c0.1,0,0.3,0,0.4-0.1c0.3-0.3,0.6-0.5,0.9-0.9c0.1-0.1,0.1-0.2,0.1-0.3    c1.5-1.3,2.9-2.6,4.1-4.2C225.2,62.6,228.3,59.6,228.4,59.6z M259.5,28.7c0,0.2,0.3,0.1,0.3,0.3c-0.2,0-0.4,0.1-0.4,0.3    C259.4,29.1,259.4,28.9,259.5,28.7z M257.2,31.6c-0.1,0.1,0,0.1,0.1,0.1c-0.1,0-0.1,0-0.2,0.1L257.2,31.6z M254.8,25.1    c0,0.2,0.1,0.3,0,0.5c0-0.1-0.2-0.1-0.3-0.2C254.7,25.3,254.8,25.2,254.8,25.1z M252.8,27c0.2,0,0.3,0.1,0.2,0.2    c0-0.1-0.1,0-0.2,0L252.8,27z M239.1,4.7c0,0.1,0.1,0.1,0,0.2L239,4.9L239.1,4.7z M236.5,2.5c0-0.1-0.1-0.1-0.2-0.1    C236.6,2.1,236.4,2.5,236.5,2.5z M208.8,21.1l-0.1-0.2C208.7,20.9,208.8,20.9,208.8,21.1L208.8,21.1z M227.6,33.3    c0,0,0,0.1-0.1,0.1l-0.1,0L227.6,33.3z M244.2,36.7l-0.2,0l0-0.1L244.2,36.7z M201.6,77.7c-0.3-0.3,0.1-0.1,0.3-0.4    C201.8,77.5,201.7,77.6,201.6,77.7z M205.6,72.6l0.2-0.3c0.1,0.1,0.2,0.1,0.3,0.1C205.5,72.6,206.1,72.7,205.6,72.6z M206.5,71.9    c0,0,0.1-0.1,0.2,0l0,0.1C206.6,72,206.5,72,206.5,71.9z"/>
        </g>
    </g>
</svg>
